solid ascii
  facet normal 2.145140e-02 -1.029120e-03 9.997694e-01
    outer loop
      vertex   3.455488e-01 -9.169822e+00 4.898458e+02
      vertex   8.485759e-02 -6.705330e+00 4.898539e+02
      vertex   -1.366164e-01 -9.225826e+00 4.898561e+02
    endloop
  endfacet
  facet normal 4.185383e-02 1.131159e-03 9.991231e-01
    outer loop
      vertex   3.455488e-01 -9.169822e+00 4.898458e+02
      vertex   5.856948e-01 -6.705330e+00 4.898329e+02
      vertex   8.485759e-02 -6.705330e+00 4.898539e+02
    endloop
  endfacet
  facet normal 6.427914e-02 -1.060231e-03 9.979314e-01
    outer loop
      vertex   3.455488e-01 -9.169822e+00 4.898458e+02
      vertex   8.268300e-01 -9.116232e+00 4.898148e+02
      vertex   5.856948e-01 -6.705330e+00 4.898329e+02
    endloop
  endfacet
  facet normal 8.632007e-02 1.156766e-03 9.962668e-01
    outer loop
      vertex   5.856948e-01 -6.705330e+00 4.898329e+02
      vertex   8.268300e-01 -9.116232e+00 4.898148e+02
      vertex   1.085100e+00 -6.705330e+00 4.897897e+02
    endloop
  endfacet
  facet normal 1.185592e-01 3.318764e-04 9.929469e-01
    outer loop
      vertex   9.621214e-01 -8.845505e-01 4.898024e+02
      vertex   1.085100e+00 -6.705330e+00 4.897897e+02
      vertex   1.433063e+00 -9.408115e-01 4.897462e+02
    endloop
  endfacet
  facet normal 8.632012e-02 -3.565238e-04 9.962674e-01
    outer loop
      vertex   9.621214e-01 -8.845505e-01 4.898024e+02
      vertex   5.856948e-01 -6.705330e+00 4.898329e+02
      vertex   1.085100e+00 -6.705330e+00 4.897897e+02
    endloop
  endfacet
  facet normal 7.659691e-02 2.764391e-04 9.970621e-01
    outer loop
      vertex   9.621214e-01 -8.845505e-01 4.898024e+02
      vertex   4.892287e-01 -8.254992e-01 4.898387e+02
      vertex   5.856948e-01 -6.705330e+00 4.898329e+02
    endloop
  endfacet
  facet normal 4.185386e-02 -2.955919e-04 9.991237e-01
    outer loop
      vertex   5.856948e-01 -6.705330e+00 4.898329e+02
      vertex   4.892287e-01 -8.254992e-01 4.898387e+02
      vertex   8.485759e-02 -6.705330e+00 4.898539e+02
    endloop
  endfacet
  facet normal 3.449646e-02 2.111218e-04 9.994048e-01
    outer loop
      vertex   8.485759e-02 -6.705330e+00 4.898539e+02
      vertex   4.892287e-01 -8.254992e-01 4.898387e+02
      vertex   1.522574e-02 -7.637626e-01 4.898550e+02
    endloop
  endfacet
  facet normal -8.557757e-03 2.010329e-04 9.999634e-01
    outer loop
      vertex   -4.164171e-01 -6.705330e+00 4.898526e+02
      vertex   1.522574e-02 -7.637626e-01 4.898550e+02
      vertex   -4.780912e-01 -8.252370e-01 4.898508e+02
    endloop
  endfacet
  facet normal -5.238582e-02 1.802132e-04 9.986269e-01
    outer loop
      vertex   -9.171340e-01 -6.705330e+00 4.898289e+02
      vertex   -4.780912e-01 -8.252370e-01 4.898508e+02
      vertex   -9.707492e-01 -8.840934e-01 4.898250e+02
    endloop
  endfacet
  facet normal -9.611318e-02 1.579102e-04 9.953704e-01
    outer loop
      vertex   -1.416299e+00 -6.705330e+00 4.897829e+02
      vertex   -9.707492e-01 -8.840934e-01 4.898250e+02
      vertex   -1.461801e+00 -9.402186e-01 4.897776e+02
    endloop
  endfacet
  facet normal -1.396558e-01 1.341095e-04 9.902001e-01
    outer loop
      vertex   -1.912921e+00 -6.705330e+00 4.897148e+02
      vertex   -1.461801e+00 -9.402186e-01 4.897776e+02
      vertex   -1.950302e+00 -9.935048e-01 4.897087e+02
    endloop
  endfacet
  facet normal -1.829300e-01 1.088026e-04 9.831259e-01
    outer loop
      vertex   -2.406014e+00 -6.705330e+00 4.896245e+02
      vertex   -1.950302e+00 -9.935048e-01 4.897087e+02
      vertex   -2.435314e+00 -1.043849e+00 4.896185e+02
    endloop
  endfacet
  facet normal -2.258526e-01 8.198767e-05 9.741615e-01
    outer loop
      vertex   -2.894599e+00 -6.705330e+00 4.895125e+02
      vertex   -2.435314e+00 -1.043849e+00 4.896185e+02
      vertex   -2.915902e+00 -1.091156e+00 4.895071e+02
    endloop
  endfacet
  facet normal -2.683412e-01 5.366974e-05 9.633239e-01
    outer loop
      vertex   -3.377706e+00 -6.705330e+00 4.893787e+02
      vertex   -2.915902e+00 -1.091156e+00 4.895071e+02
      vertex   -3.391144e+00 -1.135333e+00 4.893747e+02
    endloop
  endfacet
  facet normal -3.103140e-01 2.386129e-05 9.506341e-01
    outer loop
      vertex   -3.854376e+00 -6.705330e+00 4.892236e+02
      vertex   -3.391144e+00 -1.135333e+00 4.893747e+02
      vertex   -3.860125e+00 -1.176295e+00 4.892216e+02
    endloop
  endfacet
  facet normal -3.516892e-01 -2.445808e-05 9.361168e-01
    outer loop
      vertex   -4.321944e+00 -1.213965e+00 4.890481e+02
      vertex   -3.854376e+00 -6.705330e+00 4.892236e+02
      vertex   -3.860125e+00 -1.176295e+00 4.892216e+02
    endloop
  endfacet
  facet normal -3.514930e-01 -5.399610e-06 9.361905e-01
    outer loop
      vertex   -4.321944e+00 -1.213965e+00 4.890481e+02
      vertex   -4.323184e+00 -6.705330e+00 4.890476e+02
      vertex   -3.854376e+00 -6.705330e+00 4.892236e+02
    endloop
  endfacet
  facet normal -3.923938e-01 5.319404e-06 9.197973e-01
    outer loop
      vertex   -4.321944e+00 -1.213965e+00 4.890481e+02
      vertex   -4.775712e+00 -1.248269e+00 4.888545e+02
      vertex   -4.323184e+00 -6.705330e+00 4.890476e+02
    endloop
  endfacet
  facet normal -3.928484e-01 -3.924615e-05 9.196032e-01
    outer loop
      vertex   -4.323184e+00 -6.705330e+00 4.890476e+02
      vertex   -4.775712e+00 -1.248269e+00 4.888545e+02
      vertex   -4.784633e+00 -6.705330e+00 4.888505e+02
    endloop
  endfacet
  facet normal -3.986249e-01 -5.608089e-04 9.171139e-01
    outer loop
      vertex   -4.396017e+00 -8.816477e+00 4.890181e+02
      vertex   -4.784633e+00 -6.705330e+00 4.888505e+02
      vertex   -4.841141e+00 -8.785332e+00 4.888246e+02
    endloop
  endfacet
  facet normal -3.928483e-01 7.001642e-04 9.196030e-01
    outer loop
      vertex   -4.396017e+00 -8.816477e+00 4.890181e+02
      vertex   -4.323184e+00 -6.705330e+00 4.890476e+02
      vertex   -4.784633e+00 -6.705330e+00 4.888505e+02
    endloop
  endfacet
  facet normal -3.587078e-01 -6.711934e-04 9.334497e-01
    outer loop
      vertex   -4.396017e+00 -8.816477e+00 4.890181e+02
      vertex   -3.942964e+00 -8.850684e+00 4.891922e+02
      vertex   -4.323184e+00 -6.705330e+00 4.890476e+02
    endloop
  endfacet
  facet normal -3.514929e-01 7.921727e-04 9.361902e-01
    outer loop
      vertex   -4.323184e+00 -6.705330e+00 4.890476e+02
      vertex   -3.942964e+00 -8.850684e+00 4.891922e+02
      vertex   -3.854376e+00 -6.705330e+00 4.892236e+02
    endloop
  endfacet
  facet normal -3.181230e-01 -7.595956e-04 9.480491e-01
    outer loop
      vertex   -3.854376e+00 -6.705330e+00 4.892236e+02
      vertex   -3.942964e+00 -8.850684e+00 4.891922e+02
      vertex   -3.482824e+00 -8.887891e+00 4.893465e+02
    endloop
  endfacet
  facet normal -2.769465e-01 -8.369931e-04 9.608850e-01
    outer loop
      vertex   -3.377706e+00 -6.705330e+00 4.893787e+02
      vertex   -3.482824e+00 -8.887891e+00 4.893465e+02
      vertex   -3.016454e+00 -8.928027e+00 4.894809e+02
    endloop
  endfacet
  facet normal -2.352544e-01 -9.003076e-04 9.719334e-01
    outer loop
      vertex   -2.894599e+00 -6.705330e+00 4.895125e+02
      vertex   -3.016454e+00 -8.928027e+00 4.894809e+02
      vertex   -2.544722e+00 -8.971019e+00 4.895951e+02
    endloop
  endfacet
  facet normal -1.931239e-01 -9.500973e-04 9.811739e-01
    outer loop
      vertex   -2.406014e+00 -6.705330e+00 4.896245e+02
      vertex   -2.544722e+00 -8.971019e+00 4.895951e+02
      vertex   -2.068506e+00 -9.016786e+00 4.896887e+02
    endloop
  endfacet
  facet normal -1.506333e-01 -9.869946e-04 9.885892e-01
    outer loop
      vertex   -1.912921e+00 -6.705330e+00 4.897148e+02
      vertex   -2.068506e+00 -9.016786e+00 4.896887e+02
      vertex   -1.588692e+00 -9.065242e+00 4.897618e+02
    endloop
  endfacet
  facet normal -1.078614e-01 -1.011686e-03 9.941654e-01
    outer loop
      vertex   -1.416299e+00 -6.705330e+00 4.897829e+02
      vertex   -1.588692e+00 -9.065242e+00 4.897618e+02
      vertex   -1.106173e+00 -9.116299e+00 4.898141e+02
    endloop
  endfacet
  facet normal -6.488765e-02 -1.024897e-03 9.978920e-01
    outer loop
      vertex   -9.171340e-01 -6.705330e+00 4.898289e+02
      vertex   -1.106173e+00 -9.116299e+00 4.898141e+02
      vertex   -6.218472e-01 -9.169860e+00 4.898455e+02
    endloop
  endfacet
  facet normal -2.179182e-02 -1.027369e-03 9.997620e-01
    outer loop
      vertex   -4.164171e-01 -6.705330e+00 4.898526e+02
      vertex   -6.218472e-01 -9.169860e+00 4.898455e+02
      vertex   -1.366164e-01 -9.225826e+00 4.898561e+02
    endloop
  endfacet
  facet normal -2.695505e-03 1.092842e-03 9.999958e-01
    outer loop
      vertex   8.485759e-02 -6.705330e+00 4.898539e+02
      vertex   -4.164171e-01 -6.705330e+00 4.898526e+02
      vertex   -1.366164e-01 -9.225826e+00 4.898561e+02
    endloop
  endfacet
  facet normal -2.695506e-03 -2.248616e-04 9.999963e-01
    outer loop
      vertex   8.485759e-02 -6.705330e+00 4.898539e+02
      vertex   1.522574e-02 -7.637626e-01 4.898550e+02
      vertex   -4.164171e-01 -6.705330e+00 4.898526e+02
    endloop
  endfacet
  facet normal 1.069868e-01 -1.078141e-03 9.942599e-01
    outer loop
      vertex   8.268300e-01 -9.116232e+00 4.898148e+02
      vertex   1.306343e+00 -9.065156e+00 4.897633e+02
      vertex   1.085100e+00 -6.705330e+00 4.897897e+02
    endloop
  endfacet
  facet normal 1.306149e-01 1.168670e-03 9.914325e-01
    outer loop
      vertex   1.085100e+00 -6.705330e+00 4.897897e+02
      vertex   1.306343e+00 -9.065156e+00 4.897633e+02
      vertex   1.582082e+00 -6.705330e+00 4.897242e+02
    endloop
  endfacet
  facet normal 1.603089e-01 3.770199e-04 9.870668e-01
    outer loop
      vertex   1.433063e+00 -9.408115e-01 4.897462e+02
      vertex   1.582082e+00 -6.705330e+00 4.897242e+02
      vertex   1.901217e+00 -9.941823e-01 4.896702e+02
    endloop
  endfacet
  facet normal 1.306150e-01 -4.072631e-04 9.914331e-01
    outer loop
      vertex   1.433063e+00 -9.408115e-01 4.897462e+02
      vertex   1.085100e+00 -6.705330e+00 4.897897e+02
      vertex   1.582082e+00 -6.705330e+00 4.897242e+02
    endloop
  endfacet
  facet normal 1.494961e-01 -1.081815e-03 9.887617e-01
    outer loop
      vertex   1.306343e+00 -9.065156e+00 4.897633e+02
      vertex   1.783206e+00 -9.016687e+00 4.896912e+02
      vertex   1.582082e+00 -6.705330e+00 4.897242e+02
    endloop
  endfacet
  facet normal 1.746505e-01 1.165877e-03 9.846298e-01
    outer loop
      vertex   1.582082e+00 -6.705330e+00 4.897242e+02
      vertex   1.783206e+00 -9.016687e+00 4.896912e+02
      vertex   2.075655e+00 -6.705330e+00 4.896366e+02
    endloop
  endfacet
  facet normal 2.017718e-01 4.114688e-04 9.794325e-01
    outer loop
      vertex   1.901217e+00 -9.941823e-01 4.896702e+02
      vertex   2.075655e+00 -6.705330e+00 4.896366e+02
      vertex   2.365751e+00 -1.044568e+00 4.895745e+02
    endloop
  endfacet
  facet normal 1.746506e-01 -4.474262e-04 9.846304e-01
    outer loop
      vertex   1.901217e+00 -9.941823e-01 4.896702e+02
      vertex   1.582082e+00 -6.705330e+00 4.897242e+02
      vertex   2.075655e+00 -6.705330e+00 4.896366e+02
    endloop
  endfacet
  facet normal 1.917291e-01 -1.070228e-03 9.814473e-01
    outer loop
      vertex   1.783206e+00 -9.016687e+00 4.896912e+02
      vertex   2.256543e+00 -8.970914e+00 4.895988e+02
      vertex   2.075655e+00 -6.705330e+00 4.896366e+02
    endloop
  endfacet
  facet normal 2.183392e-01 1.147407e-03 9.758723e-01
    outer loop
      vertex   2.075655e+00 -6.705330e+00 4.896366e+02
      vertex   2.256543e+00 -8.970914e+00 4.895988e+02
      vertex   2.564837e+00 -6.705330e+00 4.895272e+02
    endloop
  endfacet
  facet normal 2.428745e-01 4.348403e-04 9.700576e-01
    outer loop
      vertex   2.365751e+00 -1.044568e+00 4.895745e+02
      vertex   2.564837e+00 -6.705330e+00 4.895272e+02
      vertex   2.825840e+00 -1.091879e+00 4.894593e+02
    endloop
  endfacet
  facet normal 2.183394e-01 -4.766442e-04 9.758728e-01
    outer loop
      vertex   2.365751e+00 -1.044568e+00 4.895745e+02
      vertex   2.075655e+00 -6.705330e+00 4.896366e+02
      vertex   2.564837e+00 -6.705330e+00 4.895272e+02
    endloop
  endfacet
  facet normal 2.336084e-01 -1.042383e-03 9.723302e-01
    outer loop
      vertex   2.256543e+00 -8.970914e+00 4.895988e+02
      vertex   2.725484e+00 -8.927922e+00 4.894862e+02
      vertex   2.564837e+00 -6.705330e+00 4.895272e+02
    endloop
  endfacet
  facet normal 2.615945e-01 1.112318e-03 9.651772e-01
    outer loop
      vertex   2.564837e+00 -6.705330e+00 4.895272e+02
      vertex   2.725484e+00 -8.927922e+00 4.894862e+02
      vertex   3.048658e+00 -6.705330e+00 4.893960e+02
    endloop
  endfacet
  facet normal 2.835442e-01 4.467754e-04 9.589591e-01
    outer loop
      vertex   2.825840e+00 -1.091879e+00 4.894593e+02
      vertex   3.048658e+00 -6.705330e+00 4.893960e+02
      vertex   3.280665e+00 -1.136031e+00 4.893249e+02
    endloop
  endfacet
  facet normal 2.615947e-01 -4.945677e-04 9.651777e-01
    outer loop
      vertex   2.825840e+00 -1.091879e+00 4.894593e+02
      vertex   2.564837e+00 -6.705330e+00 4.895272e+02
      vertex   3.048658e+00 -6.705330e+00 4.893960e+02
    endloop
  endfacet
  facet normal 2.750574e-01 -9.973345e-04 9.614273e-01
    outer loop
      vertex   2.725484e+00 -8.927922e+00 4.894862e+02
      vertex   3.189168e+00 -8.887789e+00 4.893536e+02
      vertex   3.048658e+00 -6.705330e+00 4.893960e+02
    endloop
  endfacet
  facet normal 3.043305e-01 1.059722e-03 9.525659e-01
    outer loop
      vertex   3.048658e+00 -6.705330e+00 4.893960e+02
      vertex   3.189168e+00 -8.887789e+00 4.893536e+02
      vertex   3.526157e+00 -6.705330e+00 4.892435e+02
    endloop
  endfacet
  facet normal 3.237088e-01 4.469443e-04 9.461566e-01
    outer loop
      vertex   3.280665e+00 -1.136031e+00 4.893249e+02
      vertex   3.526157e+00 -6.705330e+00 4.892435e+02
      vertex   3.729419e+00 -1.176946e+00 4.891713e+02
    endloop
  endfacet
  facet normal 3.043306e-01 -5.008715e-04 9.525663e-01
    outer loop
      vertex   3.280665e+00 -1.136031e+00 4.893249e+02
      vertex   3.048658e+00 -6.705330e+00 4.893960e+02
      vertex   3.526157e+00 -6.705330e+00 4.892435e+02
    endloop
  endfacet
  facet normal 3.160001e-01 -9.342152e-04 9.487587e-01
    outer loop
      vertex   3.189168e+00 -8.887789e+00 4.893536e+02
      vertex   3.646741e+00 -8.850589e+00 4.892012e+02
      vertex   3.526157e+00 -6.705330e+00 4.892435e+02
    endloop
  endfacet
  facet normal 3.464622e-01 9.888149e-04 9.380634e-01
    outer loop
      vertex   3.526157e+00 -6.705330e+00 4.892435e+02
      vertex   3.646741e+00 -8.850589e+00 4.892012e+02
      vertex   3.996386e+00 -6.705330e+00 4.890698e+02
    endloop
  endfacet
  facet normal 3.632972e-01 4.350517e-04 9.316732e-01
    outer loop
      vertex   3.729419e+00 -1.176946e+00 4.891713e+02
      vertex   3.996386e+00 -6.705330e+00 4.890698e+02
      vertex   4.171303e+00 -1.214551e+00 4.889990e+02
    endloop
  endfacet
  facet normal 3.464623e-01 -4.952594e-04 9.380638e-01
    outer loop
      vertex   3.729419e+00 -1.176946e+00 4.891713e+02
      vertex   3.526157e+00 -6.705330e+00 4.892435e+02
      vertex   3.996386e+00 -6.705330e+00 4.890698e+02
    endloop
  endfacet
  facet normal 3.563618e-01 -8.522622e-04 9.343477e-01
    outer loop
      vertex   3.646741e+00 -8.850589e+00 4.892012e+02
      vertex   4.097364e+00 -8.816391e+00 4.890294e+02
      vertex   3.996386e+00 -6.705330e+00 4.890698e+02
    endloop
  endfacet
  facet normal 3.879061e-01 8.988942e-04 9.216985e-01
    outer loop
      vertex   3.996386e+00 -6.705330e+00 4.890698e+02
      vertex   4.097364e+00 -8.816391e+00 4.890294e+02
      vertex   4.458412e+00 -6.705330e+00 4.888754e+02
    endloop
  endfacet
  facet normal 4.022393e-01 4.108425e-04 9.155345e-01
    outer loop
      vertex   4.171303e+00 -1.214551e+00 4.889990e+02
      vertex   4.458412e+00 -6.705330e+00 4.888754e+02
      vertex   4.605533e+00 -1.248780e+00 4.888083e+02
    endloop
  endfacet
  facet normal 3.879062e-01 -4.774686e-04 9.216987e-01
    outer loop
      vertex   4.171303e+00 -1.214551e+00 4.889990e+02
      vertex   3.996386e+00 -6.705330e+00 4.890698e+02
      vertex   4.458412e+00 -6.705330e+00 4.888754e+02
    endloop
  endfacet
  facet normal 3.960686e-01 -7.508447e-04 9.182206e-01
    outer loop
      vertex   4.097364e+00 -8.816391e+00 4.890294e+02
      vertex   4.540208e+00 -8.785257e+00 4.888384e+02
      vertex   4.458412e+00 -6.705330e+00 4.888754e+02
    endloop
  endfacet
  facet normal 4.285798e-01 7.893880e-04 9.035036e-01
    outer loop
      vertex   4.458412e+00 -6.705330e+00 4.888754e+02
      vertex   4.540208e+00 -8.785257e+00 4.888384e+02
      vertex   4.911317e+00 -6.705330e+00 4.886605e+02
    endloop
  endfacet
  facet normal 4.404661e-01 3.741065e-04 8.977692e-01
    outer loop
      vertex   4.605533e+00 -1.248780e+00 4.888083e+02
      vertex   4.911317e+00 -6.705330e+00 4.886605e+02
      vertex   5.031337e+00 -1.279570e+00 4.885994e+02
    endloop
  endfacet
  facet normal 4.285799e-01 -4.472745e-04 9.035038e-01
    outer loop
      vertex   4.605533e+00 -1.248780e+00 4.888083e+02
      vertex   4.458412e+00 -6.705330e+00 4.888754e+02
      vertex   4.911317e+00 -6.705330e+00 4.886605e+02
    endloop
  endfacet
  facet normal 4.350481e-01 -6.294909e-04 9.004070e-01
    outer loop
      vertex   4.540208e+00 -8.785257e+00 4.888384e+02
      vertex   4.974460e+00 -8.757245e+00 4.886286e+02
      vertex   4.911317e+00 -6.705330e+00 4.886605e+02
    endloop
  endfacet
  facet normal 4.684026e-01 6.598774e-04 8.835149e-01
    outer loop
      vertex   4.911317e+00 -6.705330e+00 4.886605e+02
      vertex   4.974460e+00 -8.757245e+00 4.886286e+02
      vertex   5.354203e+00 -6.705330e+00 4.884257e+02
    endloop
  endfacet
  facet normal 4.779101e-01 3.246831e-04 8.784087e-01
    outer loop
      vertex   5.031337e+00 -1.279570e+00 4.885994e+02
      vertex   5.354203e+00 -6.705330e+00 4.884257e+02
      vertex   5.447957e+00 -1.306869e+00 4.883727e+02
    endloop
  endfacet
  facet normal 4.684027e-01 -4.044941e-04 8.835150e-01
    outer loop
      vertex   5.031337e+00 -1.279570e+00 4.885994e+02
      vertex   4.911317e+00 -6.705330e+00 4.886605e+02
      vertex   5.354203e+00 -6.705330e+00 4.884257e+02
    endloop
  endfacet
  facet normal 4.732289e-01 -4.879138e-04 8.809394e-01
    outer loop
      vertex   4.974460e+00 -8.757245e+00 4.886286e+02
      vertex   5.399321e+00 -8.732407e+00 4.884004e+02
      vertex   5.354203e+00 -6.705330e+00 4.884257e+02
    endloop
  endfacet
  facet normal 5.072955e-01 5.101189e-04 8.617720e-01
    outer loop
      vertex   5.354203e+00 -6.705330e+00 4.884257e+02
      vertex   5.399321e+00 -8.732407e+00 4.884004e+02
      vertex   5.786189e+00 -6.705330e+00 4.881714e+02
    endloop
  endfacet
  facet normal 5.145049e-01 2.624653e-04 8.574874e-01
    outer loop
      vertex   5.447957e+00 -1.306869e+00 4.883727e+02
      vertex   5.786189e+00 -6.705330e+00 4.881714e+02
      vertex   5.854653e+00 -1.330626e+00 4.881287e+02
    endloop
  endfacet
  facet normal 5.072955e-01 -3.489908e-04 8.617721e-01
    outer loop
      vertex   5.447957e+00 -1.306869e+00 4.883727e+02
      vertex   5.354203e+00 -6.705330e+00 4.884257e+02
      vertex   5.786189e+00 -6.705330e+00 4.881714e+02
    endloop
  endfacet
  facet normal 5.105412e-01 -3.260332e-04 8.598532e-01
    outer loop
      vertex   5.399321e+00 -8.732407e+00 4.884004e+02
      vertex   5.814010e+00 -8.710787e+00 4.881542e+02
      vertex   5.786189e+00 -6.705330e+00 4.881714e+02
    endloop
  endfacet
  facet normal 5.451812e-01 3.400636e-04 8.383182e-01
    outer loop
      vertex   5.786189e+00 -6.705330e+00 4.881714e+02
      vertex   5.814010e+00 -8.710787e+00 4.881542e+02
      vertex   6.206418e+00 -6.705330e+00 4.878982e+02
    endloop
  endfacet
  facet normal 5.501859e-01 1.874028e-04 8.350422e-01
    outer loop
      vertex   5.854653e+00 -1.330626e+00 4.881287e+02
      vertex   6.206418e+00 -6.705330e+00 4.878982e+02
      vertex   6.250703e+00 -1.350801e+00 4.878678e+02
    endloop
  endfacet
  facet normal 5.451812e-01 -2.806765e-04 8.383182e-01
    outer loop
      vertex   5.854653e+00 -1.330626e+00 4.881287e+02
      vertex   5.786189e+00 -6.705330e+00 4.881714e+02
      vertex   6.206418e+00 -6.705330e+00 4.878982e+02
    endloop
  endfacet
  facet normal 5.469170e-01 -1.439938e-04 8.371869e-01
    outer loop
      vertex   5.814010e+00 -8.710787e+00 4.881542e+02
      vertex   6.217766e+00 -8.692425e+00 4.878904e+02
      vertex   6.206418e+00 -6.705330e+00 4.878982e+02
    endloop
  endfacet
  facet normal 5.819844e-01 1.498730e-04 8.131999e-01
    outer loop
      vertex   6.206418e+00 -6.705330e+00 4.878982e+02
      vertex   6.217766e+00 -8.692425e+00 4.878904e+02
      vertex   6.614056e+00 -6.705330e+00 4.876064e+02
    endloop
  endfacet
  facet normal 5.848897e-01 9.950499e-05 8.111128e-01
    outer loop
      vertex   6.250703e+00 -1.350801e+00 4.878678e+02
      vertex   6.614056e+00 -6.705330e+00 4.876064e+02
      vertex   6.635403e+00 -1.367356e+00 4.875904e+02
    endloop
  endfacet
  facet normal 5.819844e-01 -1.995151e-04 8.131999e-01
    outer loop
      vertex   6.250703e+00 -1.350801e+00 4.878678e+02
      vertex   6.206418e+00 -6.705330e+00 4.878982e+02
      vertex   6.614056e+00 -6.705330e+00 4.876064e+02
    endloop
  endfacet
  facet normal 5.822895e-01 5.782234e-05 8.129815e-01
    outer loop
      vertex   6.217766e+00 -8.692425e+00 4.878904e+02
      vertex   6.609846e+00 -8.677356e+00 4.876096e+02
      vertex   6.614056e+00 -6.705330e+00 4.876064e+02
    endloop
  endfacet
  facet normal 6.166006e-01 -5.657344e-05 7.872762e-01
    outer loop
      vertex   6.614056e+00 -6.705330e+00 4.876064e+02
      vertex   6.609846e+00 -8.677356e+00 4.876096e+02
      vertex   6.989530e+00 -8.665606e+00 4.873122e+02
    endloop
  endfacet
  facet normal 6.497781e-01 -2.512877e-04 7.601239e-01
    outer loop
      vertex   7.008233e+00 -6.705330e+00 4.872969e+02
      vertex   6.989530e+00 -8.665606e+00 4.873122e+02
      vertex   7.356120e+00 -8.657198e+00 4.869988e+02
    endloop
  endfacet
  facet normal 6.817593e-01 -4.326842e-04 7.315764e-01
    outer loop
      vertex   7.388348e+00 -6.705330e+00 4.869700e+02
      vertex   7.356120e+00 -8.657198e+00 4.869988e+02
      vertex   7.708942e+00 -8.652147e+00 4.866700e+02
    endloop
  endfacet
  facet normal 7.124858e-01 -5.972387e-04 7.016863e-01
    outer loop
      vertex   7.753464e+00 -6.705330e+00 4.866265e+02
      vertex   7.708942e+00 -8.652147e+00 4.866700e+02
      vertex   8.047349e+00 -8.650463e+00 4.863264e+02
    endloop
  endfacet
  facet normal 7.144240e-01 -8.750632e-15 6.997131e-01
    outer loop
      vertex   8.047349e+00 -1.396897e+00 4.863264e+02
      vertex   7.753464e+00 -6.705330e+00 4.866265e+02
      vertex   8.047349e+00 -8.650463e+00 4.863264e+02
    endloop
  endfacet
  facet normal 7.127341e-01 1.908449e-04 7.014343e-01
    outer loop
      vertex   8.047349e+00 -1.396897e+00 4.863264e+02
      vertex   7.714669e+00 -1.395047e+00 4.866645e+02
      vertex   7.753464e+00 -6.705330e+00 4.866265e+02
    endloop
  endfacet
  facet normal 6.851806e-01 -2.031020e-04 7.283732e-01
    outer loop
      vertex   7.753464e+00 -6.705330e+00 4.866265e+02
      vertex   7.714669e+00 -1.395047e+00 4.866645e+02
      vertex   7.388348e+00 -6.705330e+00 4.869700e+02
    endloop
  endfacet
  facet normal 6.851805e-01 6.241902e-04 7.283731e-01
    outer loop
      vertex   7.708942e+00 -8.652147e+00 4.866700e+02
      vertex   7.753464e+00 -6.705330e+00 4.866265e+02
      vertex   7.388348e+00 -6.705330e+00 4.869700e+02
    endloop
  endfacet
  facet normal 6.176294e-01 2.616119e-04 7.864692e-01
    outer loop
      vertex   6.614056e+00 -6.705330e+00 4.876064e+02
      vertex   6.989530e+00 -8.665606e+00 4.873122e+02
      vertex   7.008233e+00 -6.705330e+00 4.872969e+02
    endloop
  endfacet
  facet normal 6.185550e-01 -8.462164e-07 7.857415e-01
    outer loop
      vertex   6.635403e+00 -1.367356e+00 4.875904e+02
      vertex   7.008233e+00 -6.705330e+00 4.872969e+02
      vertex   7.008068e+00 -1.380263e+00 4.872970e+02
    endloop
  endfacet
  facet normal 6.176295e-01 -1.055067e-04 7.864692e-01
    outer loop
      vertex   6.635403e+00 -1.367356e+00 4.875904e+02
      vertex   6.614056e+00 -6.705330e+00 4.876064e+02
      vertex   7.008233e+00 -6.705330e+00 4.872969e+02
    endloop
  endfacet
  facet normal 6.520510e-01 4.513854e-04 7.581750e-01
    outer loop
      vertex   7.008233e+00 -6.705330e+00 4.872969e+02
      vertex   7.356120e+00 -8.657198e+00 4.869988e+02
      vertex   7.388348e+00 -6.705330e+00 4.869700e+02
    endloop
  endfacet
  facet normal 6.825361e-01 1.019975e-04 7.308519e-01
    outer loop
      vertex   7.368036e+00 -1.389499e+00 4.869882e+02
      vertex   7.388348e+00 -6.705330e+00 4.869700e+02
      vertex   7.714669e+00 -1.395047e+00 4.866645e+02
    endloop
  endfacet
  facet normal 6.520511e-01 -1.081681e-04 7.581750e-01
    outer loop
      vertex   7.368036e+00 -1.389499e+00 4.869882e+02
      vertex   7.008233e+00 -6.705330e+00 4.872969e+02
      vertex   7.388348e+00 -6.705330e+00 4.869700e+02
    endloop
  endfacet
  facet normal 6.511238e-01 8.454542e-07 7.589715e-01
    outer loop
      vertex   7.368036e+00 -1.389499e+00 4.869882e+02
      vertex   7.008068e+00 -1.380263e+00 4.872970e+02
      vertex   7.008233e+00 -6.705330e+00 4.872969e+02
    endloop
  endfacet
  facet normal -4.723952e-02 -2.049995e-04 9.988836e-01
    outer loop
      vertex   -4.164171e-01 -6.705330e+00 4.898526e+02
      vertex   -4.780912e-01 -8.252370e-01 4.898508e+02
      vertex   -9.171340e-01 -6.705330e+00 4.898289e+02
    endloop
  endfacet
  facet normal -4.723949e-02 1.096314e-03 9.988830e-01
    outer loop
      vertex   -6.218472e-01 -9.169860e+00 4.898455e+02
      vertex   -4.164171e-01 -6.705330e+00 4.898526e+02
      vertex   -9.171340e-01 -6.705330e+00 4.898289e+02
    endloop
  endfacet
  facet normal -9.168974e-02 -1.836712e-04 9.957876e-01
    outer loop
      vertex   -9.171340e-01 -6.705330e+00 4.898289e+02
      vertex   -9.707492e-01 -8.840934e-01 4.898250e+02
      vertex   -1.416299e+00 -6.705330e+00 4.897829e+02
    endloop
  endfacet
  facet normal -9.168969e-02 1.089487e-03 9.957870e-01
    outer loop
      vertex   -1.106173e+00 -9.116299e+00 4.898141e+02
      vertex   -9.171340e-01 -6.705330e+00 4.898289e+02
      vertex   -1.416299e+00 -6.705330e+00 4.897829e+02
    endloop
  endfacet
  facet normal -1.359579e-01 -1.608578e-04 9.907146e-01
    outer loop
      vertex   -1.416299e+00 -6.705330e+00 4.897829e+02
      vertex   -1.461801e+00 -9.402186e-01 4.897776e+02
      vertex   -1.912921e+00 -6.705330e+00 4.897148e+02
    endloop
  endfacet
  facet normal -1.359578e-01 1.071637e-03 9.907140e-01
    outer loop
      vertex   -1.588692e+00 -9.065242e+00 4.897618e+02
      vertex   -1.416299e+00 -6.705330e+00 4.897829e+02
      vertex   -1.912921e+00 -6.705330e+00 4.897148e+02
    endloop
  endfacet
  facet normal -1.799562e-01 -1.365456e-04 9.836746e-01
    outer loop
      vertex   -1.912921e+00 -6.705330e+00 4.897148e+02
      vertex   -1.950302e+00 -9.935048e-01 4.897087e+02
      vertex   -2.406014e+00 -6.705330e+00 4.896245e+02
    endloop
  endfacet
  facet normal -1.799561e-01 1.042047e-03 9.836741e-01
    outer loop
      vertex   -2.068506e+00 -9.016786e+00 4.896887e+02
      vertex   -1.912921e+00 -6.705330e+00 4.897148e+02
      vertex   -2.406014e+00 -6.705330e+00 4.896245e+02
    endloop
  endfacet
  facet normal -2.235971e-01 -1.107269e-04 9.746816e-01
    outer loop
      vertex   -2.406014e+00 -6.705330e+00 4.896245e+02
      vertex   -2.435314e+00 -1.043849e+00 4.896185e+02
      vertex   -2.894599e+00 -6.705330e+00 4.895125e+02
    endloop
  endfacet
  facet normal -2.235970e-01 1.000028e-03 9.746812e-01
    outer loop
      vertex   -2.544722e+00 -8.971019e+00 4.895951e+02
      vertex   -2.406014e+00 -6.705330e+00 4.896245e+02
      vertex   -2.894599e+00 -6.705330e+00 4.895125e+02
    endloop
  endfacet
  facet normal -2.667942e-01 -8.340035e-05 9.637535e-01
    outer loop
      vertex   -2.894599e+00 -6.705330e+00 4.895125e+02
      vertex   -2.915902e+00 -1.091156e+00 4.895071e+02
      vertex   -3.377706e+00 -6.705330e+00 4.893787e+02
    endloop
  endfacet
  facet normal -2.667941e-01 9.449267e-04 9.637531e-01
    outer loop
      vertex   -3.016454e+00 -8.928027e+00 4.894809e+02
      vertex   -2.894599e+00 -6.705330e+00 4.895125e+02
      vertex   -3.377706e+00 -6.705330e+00 4.893787e+02
    endloop
  endfacet
  facet normal -3.094615e-01 -5.457133e-05 9.509120e-01
    outer loop
      vertex   -3.377706e+00 -6.705330e+00 4.893787e+02
      vertex   -3.391144e+00 -1.135333e+00 4.893747e+02
      vertex   -3.854376e+00 -6.705330e+00 4.892236e+02
    endloop
  endfacet
  facet normal -3.094614e-01 8.761494e-04 9.509116e-01
    outer loop
      vertex   -3.482824e+00 -8.887891e+00 4.893465e+02
      vertex   -3.377706e+00 -6.705330e+00 4.893787e+02
      vertex   -3.854376e+00 -6.705330e+00 4.892236e+02
    endloop
  endfacet
  facet normal -4.323436e-01 3.857592e-05 9.017089e-01
    outer loop
      vertex   -4.775712e+00 -1.248269e+00 4.888545e+02
      vertex   -5.220557e+00 -1.279141e+00 4.886412e+02
      vertex   -4.784633e+00 -6.705330e+00 4.888505e+02
    endloop
  endfacet
  facet normal -4.334445e-01 -7.025211e-05 9.011803e-01
    outer loop
      vertex   -4.784633e+00 -6.705330e+00 4.888505e+02
      vertex   -5.220557e+00 -1.279141e+00 4.886412e+02
      vertex   -5.236373e+00 -6.705330e+00 4.886332e+02
    endloop
  endfacet
  facet normal -4.378011e-01 -4.388529e-04 8.990717e-01
    outer loop
      vertex   -4.841141e+00 -8.785332e+00 4.888246e+02
      vertex   -5.236373e+00 -6.705330e+00 4.886332e+02
      vertex   -5.277506e+00 -8.757308e+00 4.886122e+02
    endloop
  endfacet
  facet normal -4.334444e-01 5.830362e-04 9.011801e-01
    outer loop
      vertex   -4.841141e+00 -8.785332e+00 4.888246e+02
      vertex   -4.784633e+00 -6.705330e+00 4.888505e+02
      vertex   -5.236373e+00 -6.705330e+00 4.886332e+02
    endloop
  endfacet
  facet normal -4.714614e-01 6.911082e-05 8.818867e-01
    outer loop
      vertex   -5.220557e+00 -1.279141e+00 4.886412e+02
      vertex   -5.655624e+00 -1.306523e+00 4.884086e+02
      vertex   -5.236373e+00 -6.705330e+00 4.886332e+02
    endloop
  endfacet
  facet normal -4.731590e-01 -1.005500e-04 8.809771e-01
    outer loop
      vertex   -5.236373e+00 -6.705330e+00 4.886332e+02
      vertex   -5.655624e+00 -1.306523e+00 4.884086e+02
      vertex   -5.677986e+00 -6.705330e+00 4.883960e+02
    endloop
  endfacet
  facet normal -4.761635e-01 -3.017167e-04 8.793567e-01
    outer loop
      vertex   -5.277506e+00 -8.757308e+00 4.886122e+02
      vertex   -5.677986e+00 -6.705330e+00 4.883960e+02
      vertex   -5.704301e+00 -8.732457e+00 4.883811e+02
    endloop
  endfacet
  facet normal -4.731589e-01 4.553653e-04 8.809770e-01
    outer loop
      vertex   -5.277506e+00 -8.757308e+00 4.886122e+02
      vertex   -5.236373e+00 -6.705330e+00 4.886332e+02
      vertex   -5.677986e+00 -6.705330e+00 4.883960e+02
    endloop
  endfacet
  facet normal -5.096721e-01 9.889370e-05 8.603687e-01
    outer loop
      vertex   -5.655624e+00 -1.306523e+00 4.884086e+02
      vertex   -6.080075e+00 -1.330361e+00 4.881572e+02
      vertex   -5.677986e+00 -6.705330e+00 4.883960e+02
    endloop
  endfacet
  facet normal -5.119340e-01 -1.300270e-04 8.590248e-01
    outer loop
      vertex   -5.677986e+00 -6.705330e+00 4.883960e+02
      vertex   -6.080075e+00 -1.330361e+00 4.881572e+02
      vertex   -6.108595e+00 -6.705330e+00 4.881394e+02
    endloop
  endfacet
  facet normal -5.136411e-01 -1.494993e-04 8.580052e-01
    outer loop
      vertex   -5.704301e+00 -8.732457e+00 4.883811e+02
      vertex   -6.108595e+00 -6.705330e+00 4.881394e+02
      vertex   -6.120731e+00 -8.710825e+00 4.881318e+02
    endloop
  endfacet
  facet normal -5.119340e-01 3.125181e-04 8.590247e-01
    outer loop
      vertex   -5.704301e+00 -8.732457e+00 4.883811e+02
      vertex   -5.677986e+00 -6.705330e+00 4.883960e+02
      vertex   -6.108595e+00 -6.705330e+00 4.881394e+02
    endloop
  endfacet
  facet normal -5.469022e-01 1.278517e-04 8.371965e-01
    outer loop
      vertex   -6.080075e+00 -1.330361e+00 4.881572e+02
      vertex   -6.493094e+00 -1.350610e+00 4.878874e+02
      vertex   -6.108595e+00 -6.705330e+00 4.881394e+02
    endloop
  endfacet
  facet normal -5.496491e-01 -1.541349e-04 8.353956e-01
    outer loop
      vertex   -6.108595e+00 -6.705330e+00 4.881394e+02
      vertex   -6.493094e+00 -1.350610e+00 4.878874e+02
      vertex   -6.526380e+00 -6.705330e+00 4.878645e+02
    endloop
  endfacet
  facet normal -5.501646e-01 4.732483e-06 8.350562e-01
    outer loop
      vertex   -6.120731e+00 -8.710825e+00 4.881318e+02
      vertex   -6.526380e+00 -6.705330e+00 4.878645e+02
      vertex   -6.526021e+00 -8.692452e+00 4.878647e+02
    endloop
  endfacet
  facet normal -5.496491e-01 1.542328e-04 8.353956e-01
    outer loop
      vertex   -6.120731e+00 -8.710825e+00 4.881318e+02
      vertex   -6.108595e+00 -6.705330e+00 4.881394e+02
      vertex   -6.526380e+00 -6.705330e+00 4.878645e+02
    endloop
  endfacet
  facet normal -5.830802e-01 1.519041e-04 8.124146e-01
    outer loop
      vertex   -6.493094e+00 -1.350610e+00 4.878874e+02
      vertex   -6.893888e+00 -1.367231e+00 4.875997e+02
      vertex   -6.526380e+00 -6.705330e+00 4.878645e+02
    endloop
  endfacet
  facet normal -5.863177e-01 -1.867203e-04 8.100812e-01
    outer loop
      vertex   -6.526380e+00 -6.705330e+00 4.878645e+02
      vertex   -6.893888e+00 -1.367231e+00 4.875997e+02
      vertex   -6.933405e+00 -6.705330e+00 4.875699e+02
    endloop
  endfacet
  facet normal -6.200890e-01 -1.850117e-04 7.845314e-01
    outer loop
      vertex   -6.919417e+00 -8.677373e+00 4.875805e+02
      vertex   -6.933405e+00 -6.705330e+00 4.875699e+02
      vertex   -7.300187e+00 -8.665616e+00 4.872795e+02
    endloop
  endfacet
  facet normal -5.863177e-01 1.917353e-04 8.100812e-01
    outer loop
      vertex   -6.919417e+00 -8.677373e+00 4.875805e+02
      vertex   -6.526380e+00 -6.705330e+00 4.878645e+02
      vertex   -6.933405e+00 -6.705330e+00 4.875699e+02
    endloop
  endfacet
  facet normal -5.856703e-01 -4.723991e-06 8.105494e-01
    outer loop
      vertex   -6.919417e+00 -8.677373e+00 4.875805e+02
      vertex   -6.526021e+00 -8.692452e+00 4.878647e+02
      vertex   -6.526380e+00 -6.705330e+00 4.878645e+02
    endloop
  endfacet
  facet normal -6.181367e-01 1.830073e-04 7.860706e-01
    outer loop
      vertex   -6.893888e+00 -1.367231e+00 4.875997e+02
      vertex   -7.281686e+00 -1.380192e+00 4.872948e+02
      vertex   -6.933405e+00 -6.705330e+00 4.875699e+02
    endloop
  endfacet
  facet normal -6.218631e-01 -2.128333e-04 7.831260e-01
    outer loop
      vertex   -6.933405e+00 -6.705330e+00 4.875699e+02
      vertex   -7.281686e+00 -1.380192e+00 4.872948e+02
      vertex   -7.325967e+00 -6.705330e+00 4.872582e+02
    endloop
  endfacet
  facet normal -6.533513e-01 -3.431051e-04 7.570548e-01
    outer loop
      vertex   -7.300187e+00 -8.665616e+00 4.872795e+02
      vertex   -7.325967e+00 -6.705330e+00 4.872582e+02
      vertex   -7.667621e+00 -8.657202e+00 4.869624e+02
    endloop
  endfacet
  facet normal -6.218630e-01 3.550972e-04 7.831259e-01
    outer loop
      vertex   -7.300187e+00 -8.665616e+00 4.872795e+02
      vertex   -6.933405e+00 -6.705330e+00 4.875699e+02
      vertex   -7.325967e+00 -6.705330e+00 4.872582e+02
    endloop
  endfacet
  facet normal -6.520042e-01 2.090672e-04 7.582153e-01
    outer loop
      vertex   -7.281686e+00 -1.380192e+00 4.872948e+02
      vertex   -7.655741e+00 -1.389467e+00 4.869731e+02
      vertex   -7.325967e+00 -6.705330e+00 4.872582e+02
    endloop
  endfacet
  facet normal -6.561315e-01 -2.383387e-04 7.546465e-01
    outer loop
      vertex   -7.325967e+00 -6.705330e+00 4.872582e+02
      vertex   -7.655741e+00 -1.389467e+00 4.869731e+02
      vertex   -7.704254e+00 -6.705330e+00 4.869293e+02
    endloop
  endfacet
  facet normal -6.853957e-01 -4.906476e-04 7.281707e-01
    outer loop
      vertex   -7.667621e+00 -8.657202e+00 4.869624e+02
      vertex   -7.704254e+00 -6.705330e+00 4.869293e+02
      vertex   -8.021037e+00 -8.652148e+00 4.866298e+02
    endloop
  endfacet
  facet normal -6.561315e-01 5.084454e-04 7.546464e-01
    outer loop
      vertex   -7.667621e+00 -8.657202e+00 4.869624e+02
      vertex   -7.325967e+00 -6.705330e+00 4.872582e+02
      vertex   -7.704254e+00 -6.705330e+00 4.869293e+02
    endloop
  endfacet
  facet normal -6.846176e-01 2.340286e-04 7.289024e-01
    outer loop
      vertex   -7.655741e+00 -1.389467e+00 4.869731e+02
      vertex   -8.015335e+00 -1.395039e+00 4.866354e+02
      vertex   -7.704254e+00 -6.705330e+00 4.869293e+02
    endloop
  endfacet
  facet normal -6.890973e-01 -2.626932e-04 7.246688e-01
    outer loop
      vertex   -7.704254e+00 -6.705330e+00 4.869293e+02
      vertex   -8.015335e+00 -1.395039e+00 4.866354e+02
      vertex   -8.067513e+00 -6.705330e+00 4.865838e+02
    endloop
  endfacet
  facet normal -7.161630e-01 -6.266873e-04 6.979328e-01
    outer loop
      vertex   -8.021037e+00 -8.652148e+00 4.866298e+02
      vertex   -8.067513e+00 -6.705330e+00 4.865838e+02
      vertex   -8.359776e+00 -8.650462e+00 4.862822e+02
    endloop
  endfacet
  facet normal -6.890972e-01 6.503843e-04 7.246687e-01
    outer loop
      vertex   -8.021037e+00 -8.652148e+00 4.866298e+02
      vertex   -7.704254e+00 -6.705330e+00 4.869293e+02
      vertex   -8.067513e+00 -6.705330e+00 4.865838e+02
    endloop
  endfacet
  facet normal -7.159143e-01 2.578313e-04 6.981881e-01
    outer loop
      vertex   -8.015335e+00 -1.395039e+00 4.866354e+02
      vertex   -8.359776e+00 -1.396898e+00 4.862822e+02
      vertex   -8.067513e+00 -6.705330e+00 4.865838e+02
    endloop
  endfacet
  facet normal -7.181857e-01 2.287290e-15 6.958515e-01
    outer loop
      vertex   -8.067513e+00 -6.705330e+00 4.865838e+02
      vertex   -8.359776e+00 -1.396898e+00 4.862822e+02
      vertex   -8.359776e+00 -8.650462e+00 4.862822e+02
    endloop
  endfacet
  facet normal -1.238005e-01 9.855566e-01 1.155489e-01
    outer loop
      vertex   -8.359776e+00 -1.396898e+00 4.862822e+02
      vertex   -8.015335e+00 -1.395039e+00 4.866354e+02
      vertex   -3.213900e+01 -1.396898e+00 4.608048e+02
    endloop
  endfacet
  facet normal -1.238005e-01 9.855566e-01 1.155489e-01
    outer loop
      vertex   -3.213900e+01 -1.396898e+00 4.608048e+02
      vertex   -8.015335e+00 -1.395039e+00 4.866354e+02
      vertex   -7.655741e+00 -1.389467e+00 4.869731e+02
    endloop
  endfacet
  facet normal -1.238005e-01 9.855566e-01 1.155489e-01
    outer loop
      vertex   -7.281686e+00 -1.380192e+00 4.872948e+02
      vertex   -3.213900e+01 -1.396898e+00 4.608048e+02
      vertex   -7.655741e+00 -1.389467e+00 4.869731e+02
    endloop
  endfacet
  facet normal -1.238005e-01 9.855566e-01 1.155489e-01
    outer loop
      vertex   -7.281686e+00 -1.380192e+00 4.872948e+02
      vertex   -6.893888e+00 -1.367231e+00 4.875997e+02
      vertex   -3.213900e+01 -1.396898e+00 4.608048e+02
    endloop
  endfacet
  facet normal -1.238005e-01 9.855566e-01 1.155489e-01
    outer loop
      vertex   -3.213900e+01 -1.396898e+00 4.608048e+02
      vertex   -6.893888e+00 -1.367231e+00 4.875997e+02
      vertex   -6.493094e+00 -1.350610e+00 4.878874e+02
    endloop
  endfacet
  facet normal -1.238005e-01 9.855566e-01 1.155489e-01
    outer loop
      vertex   -6.080075e+00 -1.330361e+00 4.881572e+02
      vertex   -3.213900e+01 -1.396898e+00 4.608048e+02
      vertex   -6.493094e+00 -1.350610e+00 4.878874e+02
    endloop
  endfacet
  facet normal -1.238005e-01 9.855566e-01 1.155489e-01
    outer loop
      vertex   -6.080075e+00 -1.330361e+00 4.881572e+02
      vertex   -5.655624e+00 -1.306523e+00 4.884086e+02
      vertex   -3.213900e+01 -1.396898e+00 4.608048e+02
    endloop
  endfacet
  facet normal -1.238005e-01 9.855566e-01 1.155489e-01
    outer loop
      vertex   -3.213900e+01 -1.396898e+00 4.608048e+02
      vertex   -5.655624e+00 -1.306523e+00 4.884086e+02
      vertex   1.303230e+00 3.418167e+00 4.555659e+02
    endloop
  endfacet
  facet normal -1.238005e-01 9.855566e-01 1.155489e-01
    outer loop
      vertex   2.591240e+00 7.600096e+00 4.212768e+02
      vertex   -3.213900e+01 -1.396898e+00 4.608048e+02
      vertex   1.303230e+00 3.418167e+00 4.555659e+02
    endloop
  endfacet
  facet normal -1.238005e-01 9.855566e-01 1.155489e-01
    outer loop
      vertex   -5.220557e+00 -1.279141e+00 4.886412e+02
      vertex   -4.775712e+00 -1.248269e+00 4.888545e+02
      vertex   -5.655624e+00 -1.306523e+00 4.884086e+02
    endloop
  endfacet
  facet normal -1.238005e-01 9.855566e-01 1.155489e-01
    outer loop
      vertex   -5.655624e+00 -1.306523e+00 4.884086e+02
      vertex   -4.775712e+00 -1.248269e+00 4.888545e+02
      vertex   -4.321944e+00 -1.213965e+00 4.890481e+02
    endloop
  endfacet
  facet normal -1.238005e-01 9.855566e-01 1.155489e-01
    outer loop
      vertex   -3.860125e+00 -1.176295e+00 4.892216e+02
      vertex   -5.655624e+00 -1.306523e+00 4.884086e+02
      vertex   -4.321944e+00 -1.213965e+00 4.890481e+02
    endloop
  endfacet
  facet normal -1.238005e-01 9.855566e-01 1.155489e-01
    outer loop
      vertex   -3.860125e+00 -1.176295e+00 4.892216e+02
      vertex   -3.391144e+00 -1.135333e+00 4.893747e+02
      vertex   -5.655624e+00 -1.306523e+00 4.884086e+02
    endloop
  endfacet
  facet normal -1.238005e-01 9.855566e-01 1.155489e-01
    outer loop
      vertex   -5.655624e+00 -1.306523e+00 4.884086e+02
      vertex   -3.391144e+00 -1.135333e+00 4.893747e+02
      vertex   -2.915902e+00 -1.091156e+00 4.895071e+02
    endloop
  endfacet
  facet normal -1.238005e-01 9.855566e-01 1.155489e-01
    outer loop
      vertex   -2.435314e+00 -1.043849e+00 4.896185e+02
      vertex   -5.655624e+00 -1.306523e+00 4.884086e+02
      vertex   -2.915902e+00 -1.091156e+00 4.895071e+02
    endloop
  endfacet
  facet normal -1.238005e-01 9.855566e-01 1.155489e-01
    outer loop
      vertex   -2.435314e+00 -1.043849e+00 4.896185e+02
      vertex   -1.950302e+00 -9.935048e-01 4.897087e+02
      vertex   -5.655624e+00 -1.306523e+00 4.884086e+02
    endloop
  endfacet
  facet normal -1.238005e-01 9.855566e-01 1.155489e-01
    outer loop
      vertex   -5.655624e+00 -1.306523e+00 4.884086e+02
      vertex   -1.950302e+00 -9.935048e-01 4.897087e+02
      vertex   -1.461801e+00 -9.402186e-01 4.897776e+02
    endloop
  endfacet
  facet normal -1.238005e-01 9.855566e-01 1.155489e-01
    outer loop
      vertex   -9.707492e-01 -8.840934e-01 4.898250e+02
      vertex   -5.655624e+00 -1.306523e+00 4.884086e+02
      vertex   -1.461801e+00 -9.402186e-01 4.897776e+02
    endloop
  endfacet
  facet normal -1.238005e-01 9.855566e-01 1.155489e-01
    outer loop
      vertex   -9.707492e-01 -8.840934e-01 4.898250e+02
      vertex   -4.780912e-01 -8.252370e-01 4.898508e+02
      vertex   -5.655624e+00 -1.306523e+00 4.884086e+02
    endloop
  endfacet
  facet normal -1.238005e-01 9.855566e-01 1.155489e-01
    outer loop
      vertex   -5.655624e+00 -1.306523e+00 4.884086e+02
      vertex   -4.780912e-01 -8.252370e-01 4.898508e+02
      vertex   1.522574e-02 -7.637626e-01 4.898550e+02
    endloop
  endfacet
  facet normal -1.238005e-01 9.855566e-01 1.155489e-01
    outer loop
      vertex   1.303230e+00 3.418167e+00 4.555659e+02
      vertex   -5.655624e+00 -1.306523e+00 4.884086e+02
      vertex   1.522574e-02 -7.637626e-01 4.898550e+02
    endloop
  endfacet
  facet normal 1.323775e-01 9.832991e-01 1.248964e-01
    outer loop
      vertex   1.303230e+00 3.418167e+00 4.555659e+02
      vertex   1.522574e-02 -7.637626e-01 4.898550e+02
      vertex   8.047349e+00 -1.396897e+00 4.863264e+02
    endloop
  endfacet
  facet normal 1.323776e-01 9.832991e-01 1.248964e-01
    outer loop
      vertex   3.212661e+01 -1.396898e+00 4.608048e+02
      vertex   1.303230e+00 3.418167e+00 4.555659e+02
      vertex   8.047349e+00 -1.396897e+00 4.863264e+02
    endloop
  endfacet
  facet normal 1.323776e-01 9.832991e-01 1.248964e-01
    outer loop
      vertex   3.212661e+01 -1.396898e+00 4.608048e+02
      vertex   2.591240e+00 7.600096e+00 4.212768e+02
      vertex   1.303230e+00 3.418167e+00 4.555659e+02
    endloop
  endfacet
  facet normal 1.323776e-01 9.832991e-01 1.248965e-01
    outer loop
      vertex   1.522574e-02 -7.637626e-01 4.898550e+02
      vertex   4.892287e-01 -8.254992e-01 4.898387e+02
      vertex   8.047349e+00 -1.396897e+00 4.863264e+02
    endloop
  endfacet
  facet normal 1.323776e-01 9.832991e-01 1.248966e-01
    outer loop
      vertex   8.047349e+00 -1.396897e+00 4.863264e+02
      vertex   4.892287e-01 -8.254992e-01 4.898387e+02
      vertex   9.621214e-01 -8.845505e-01 4.898024e+02
    endloop
  endfacet
  facet normal 1.323776e-01 9.832990e-01 1.248966e-01
    outer loop
      vertex   1.433063e+00 -9.408115e-01 4.897462e+02
      vertex   8.047349e+00 -1.396897e+00 4.863264e+02
      vertex   9.621214e-01 -8.845505e-01 4.898024e+02
    endloop
  endfacet
  facet normal 1.323776e-01 9.832990e-01 1.248966e-01
    outer loop
      vertex   1.433063e+00 -9.408115e-01 4.897462e+02
      vertex   1.901217e+00 -9.941823e-01 4.896702e+02
      vertex   8.047349e+00 -1.396897e+00 4.863264e+02
    endloop
  endfacet
  facet normal 1.323776e-01 9.832990e-01 1.248966e-01
    outer loop
      vertex   8.047349e+00 -1.396897e+00 4.863264e+02
      vertex   1.901217e+00 -9.941823e-01 4.896702e+02
      vertex   2.365751e+00 -1.044568e+00 4.895745e+02
    endloop
  endfacet
  facet normal 1.323776e-01 9.832990e-01 1.248967e-01
    outer loop
      vertex   2.825840e+00 -1.091879e+00 4.894593e+02
      vertex   8.047349e+00 -1.396897e+00 4.863264e+02
      vertex   2.365751e+00 -1.044568e+00 4.895745e+02
    endloop
  endfacet
  facet normal 1.323776e-01 9.832990e-01 1.248967e-01
    outer loop
      vertex   2.825840e+00 -1.091879e+00 4.894593e+02
      vertex   3.280665e+00 -1.136031e+00 4.893249e+02
      vertex   8.047349e+00 -1.396897e+00 4.863264e+02
    endloop
  endfacet
  facet normal 1.323777e-01 9.832990e-01 1.248968e-01
    outer loop
      vertex   8.047349e+00 -1.396897e+00 4.863264e+02
      vertex   3.280665e+00 -1.136031e+00 4.893249e+02
      vertex   3.729419e+00 -1.176946e+00 4.891713e+02
    endloop
  endfacet
  facet normal 1.323777e-01 9.832990e-01 1.248968e-01
    outer loop
      vertex   4.171303e+00 -1.214551e+00 4.889990e+02
      vertex   8.047349e+00 -1.396897e+00 4.863264e+02
      vertex   3.729419e+00 -1.176946e+00 4.891713e+02
    endloop
  endfacet
  facet normal 1.323778e-01 9.832990e-01 1.248969e-01
    outer loop
      vertex   4.171303e+00 -1.214551e+00 4.889990e+02
      vertex   4.605533e+00 -1.248780e+00 4.888083e+02
      vertex   8.047349e+00 -1.396897e+00 4.863264e+02
    endloop
  endfacet
  facet normal 1.323779e-01 9.832990e-01 1.248970e-01
    outer loop
      vertex   8.047349e+00 -1.396897e+00 4.863264e+02
      vertex   4.605533e+00 -1.248780e+00 4.888083e+02
      vertex   5.031337e+00 -1.279570e+00 4.885994e+02
    endloop
  endfacet
  facet normal 1.323780e-01 9.832989e-01 1.248972e-01
    outer loop
      vertex   5.447957e+00 -1.306869e+00 4.883727e+02
      vertex   8.047349e+00 -1.396897e+00 4.863264e+02
      vertex   5.031337e+00 -1.279570e+00 4.885994e+02
    endloop
  endfacet
  facet normal 1.323782e-01 9.832989e-01 1.248974e-01
    outer loop
      vertex   5.447957e+00 -1.306869e+00 4.883727e+02
      vertex   5.854653e+00 -1.330626e+00 4.881287e+02
      vertex   8.047349e+00 -1.396897e+00 4.863264e+02
    endloop
  endfacet
  facet normal 1.323785e-01 9.832988e-01 1.248978e-01
    outer loop
      vertex   8.047349e+00 -1.396897e+00 4.863264e+02
      vertex   5.854653e+00 -1.330626e+00 4.881287e+02
      vertex   6.250703e+00 -1.350801e+00 4.878678e+02
    endloop
  endfacet
  facet normal 1.323790e-01 9.832986e-01 1.248985e-01
    outer loop
      vertex   6.635403e+00 -1.367356e+00 4.875904e+02
      vertex   8.047349e+00 -1.396897e+00 4.863264e+02
      vertex   6.250703e+00 -1.350801e+00 4.878678e+02
    endloop
  endfacet
  facet normal 1.323802e-01 9.832983e-01 1.248998e-01
    outer loop
      vertex   6.635403e+00 -1.367356e+00 4.875904e+02
      vertex   7.008068e+00 -1.380263e+00 4.872970e+02
      vertex   8.047349e+00 -1.396897e+00 4.863264e+02
    endloop
  endfacet
  facet normal 1.323831e-01 9.832975e-01 1.249029e-01
    outer loop
      vertex   8.047349e+00 -1.396897e+00 4.863264e+02
      vertex   7.008068e+00 -1.380263e+00 4.872970e+02
      vertex   7.368036e+00 -1.389499e+00 4.869882e+02
    endloop
  endfacet
  facet normal 1.323950e-01 9.832943e-01 1.249152e-01
    outer loop
      vertex   7.714669e+00 -1.395047e+00 4.866645e+02
      vertex   8.047349e+00 -1.396897e+00 4.863264e+02
      vertex   7.368036e+00 -1.389499e+00 4.869882e+02
    endloop
  endfacet
  facet normal 7.273610e-01 -8.906328e-15 6.862550e-01
    outer loop
      vertex   8.047349e+00 -1.396897e+00 4.863264e+02
      vertex   8.047349e+00 -8.650463e+00 4.863264e+02
      vertex   3.212661e+01 -1.396898e+00 4.608048e+02
    endloop
  endfacet
  facet normal 7.273610e-01 0.000000e+00 6.862550e-01
    outer loop
      vertex   3.212661e+01 -1.396898e+00 4.608048e+02
      vertex   8.047349e+00 -8.650463e+00 4.863264e+02
      vertex   3.212661e+01 -8.650462e+00 4.608048e+02
    endloop
  endfacet
  facet normal -7.310500e-01 2.248648e-15 6.823238e-01
    outer loop
      vertex   -8.359776e+00 -1.396898e+00 4.862822e+02
      vertex   -3.213900e+01 -1.396898e+00 4.608048e+02
      vertex   -8.359776e+00 -8.650462e+00 4.862822e+02
    endloop
  endfacet
  facet normal -7.310500e-01 4.132342e-15 6.823238e-01
    outer loop
      vertex   -8.359776e+00 -8.650462e+00 4.862822e+02
      vertex   -3.213900e+01 -1.396898e+00 4.608048e+02
      vertex   -3.213901e+01 -8.650461e+00 4.608048e+02
    endloop
  endfacet
  facet normal -9.999712e-01 -7.591216e-03 3.552503e-16
    outer loop
      vertex   -1.642009e+01 -3.807372e+00 2.500000e+02
      vertex   -1.640339e+01 -6.007308e+00 2.500000e+02
      vertex   -1.642009e+01 -3.807372e+00 2.800000e+02
    endloop
  endfacet
  facet normal -9.999712e-01 -7.591216e-03 9.473630e-16
    outer loop
      vertex   -1.642009e+01 -3.807372e+00 2.800000e+02
      vertex   -1.640339e+01 -6.007308e+00 2.500000e+02
      vertex   -1.640339e+01 -6.007308e+00 2.800000e+02
    endloop
  endfacet
  facet normal 7.591216e-03 -9.999712e-01 1.877189e-18
    outer loop
      vertex   -2.331989e+01 -3.859751e+00 2.500000e+02
      vertex   -1.642009e+01 -3.807372e+00 2.500000e+02
      vertex   -2.331989e+01 -3.859751e+00 2.800000e+02
    endloop
  endfacet
  facet normal 7.591216e-03 -9.999712e-01 -2.696942e-18
    outer loop
      vertex   -2.331989e+01 -3.859751e+00 2.800000e+02
      vertex   -1.642009e+01 -3.807372e+00 2.500000e+02
      vertex   -1.642009e+01 -3.807372e+00 2.800000e+02
    endloop
  endfacet
  facet normal 9.999712e-01 7.591216e-03 -3.552503e-16
    outer loop
      vertex   -2.330319e+01 -6.059688e+00 2.500000e+02
      vertex   -2.331989e+01 -3.859751e+00 2.500000e+02
      vertex   -2.330319e+01 -6.059688e+00 2.800000e+02
    endloop
  endfacet
  facet normal 9.999712e-01 7.591216e-03 2.368408e-16
    outer loop
      vertex   -2.330319e+01 -6.059688e+00 2.800000e+02
      vertex   -2.331989e+01 -3.859751e+00 2.500000e+02
      vertex   -2.331989e+01 -3.859751e+00 2.800000e+02
    endloop
  endfacet
  facet normal -7.591216e-03 9.999712e-01 7.240585e-18
    outer loop
      vertex   -1.640339e+01 -6.007308e+00 2.500000e+02
      vertex   -2.330319e+01 -6.059688e+00 2.500000e+02
      vertex   -1.640339e+01 -6.007308e+00 2.800000e+02
    endloop
  endfacet
  facet normal -7.591216e-03 9.999712e-01 2.696942e-18
    outer loop
      vertex   -1.640339e+01 -6.007308e+00 2.800000e+02
      vertex   -2.330319e+01 -6.059688e+00 2.500000e+02
      vertex   -2.330319e+01 -6.059688e+00 2.800000e+02
    endloop
  endfacet
  facet normal -0.000000e+00 0.000000e+00 -1.000000e+00
    outer loop
      vertex   -1.640339e+01 -6.007308e+00 2.800000e+02
      vertex   -2.330319e+01 -6.059688e+00 2.800000e+02
      vertex   -1.642009e+01 -3.807372e+00 2.800000e+02
    endloop
  endfacet
  facet normal -0.000000e+00 0.000000e+00 -1.000000e+00
    outer loop
      vertex   -1.642009e+01 -3.807372e+00 2.800000e+02
      vertex   -2.330319e+01 -6.059688e+00 2.800000e+02
      vertex   -2.331989e+01 -3.859751e+00 2.800000e+02
    endloop
  endfacet
  facet normal -7.591216e-03 9.999712e-01 3.552503e-16
    outer loop
      vertex   1.264515e+00 -8.375080e+00 2.500000e+02
      vertex   -9.354214e-01 -8.391781e+00 2.500000e+02
      vertex   1.264515e+00 -8.375080e+00 2.800000e+02
    endloop
  endfacet
  facet normal -7.591216e-03 9.999712e-01 9.473630e-16
    outer loop
      vertex   1.264515e+00 -8.375080e+00 2.800000e+02
      vertex   -9.354214e-01 -8.391781e+00 2.500000e+02
      vertex   -9.354214e-01 -8.391781e+00 2.800000e+02
    endloop
  endfacet
  facet normal -9.999712e-01 -7.591216e-03 1.877189e-18
    outer loop
      vertex   1.212136e+00 -1.475279e+00 2.500000e+02
      vertex   1.264515e+00 -8.375080e+00 2.500000e+02
      vertex   1.212136e+00 -1.475279e+00 2.800000e+02
    endloop
  endfacet
  facet normal -9.999712e-01 -7.591216e-03 -2.696942e-18
    outer loop
      vertex   1.212136e+00 -1.475279e+00 2.800000e+02
      vertex   1.264515e+00 -8.375080e+00 2.500000e+02
      vertex   1.264515e+00 -8.375080e+00 2.800000e+02
    endloop
  endfacet
  facet normal 7.591216e-03 -9.999712e-01 -3.478909e-16
    outer loop
      vertex   -9.878007e-01 -1.491979e+00 2.500000e+02
      vertex   1.212136e+00 -1.475279e+00 2.500000e+02
      vertex   -9.878007e-01 -1.491979e+00 2.800000e+02
    endloop
  endfacet
  facet normal 7.591216e-03 -9.999712e-01 2.442420e-16
    outer loop
      vertex   -9.878007e-01 -1.491979e+00 2.800000e+02
      vertex   1.212136e+00 -1.475279e+00 2.500000e+02
      vertex   1.212136e+00 -1.475279e+00 2.800000e+02
    endloop
  endfacet
  facet normal 9.999712e-01 7.591216e-03 7.240585e-18
    outer loop
      vertex   -9.354214e-01 -8.391781e+00 2.500000e+02
      vertex   -9.878007e-01 -1.491979e+00 2.500000e+02
      vertex   -9.354214e-01 -8.391781e+00 2.800000e+02
    endloop
  endfacet
  facet normal 9.999712e-01 7.591216e-03 2.640755e-18
    outer loop
      vertex   -9.354214e-01 -8.391781e+00 2.800000e+02
      vertex   -9.878007e-01 -1.491979e+00 2.500000e+02
      vertex   -9.878007e-01 -1.491979e+00 2.800000e+02
    endloop
  endfacet
  facet normal 0.000000e+00 0.000000e+00 -1.000000e+00
    outer loop
      vertex   -9.354214e-01 -8.391781e+00 2.800000e+02
      vertex   -9.878007e-01 -1.491979e+00 2.800000e+02
      vertex   1.264515e+00 -8.375080e+00 2.800000e+02
    endloop
  endfacet
  facet normal 0.000000e+00 0.000000e+00 -1.000000e+00
    outer loop
      vertex   1.264515e+00 -8.375080e+00 2.800000e+02
      vertex   -9.878007e-01 -1.491979e+00 2.800000e+02
      vertex   1.212136e+00 -1.475279e+00 2.800000e+02
    endloop
  endfacet
  facet normal -9.999712e-01 -7.591216e-03 3.552503e-16
    outer loop
      vertex   2.357991e+01 -3.807372e+00 2.500000e+02
      vertex   2.359661e+01 -6.007308e+00 2.500000e+02
      vertex   2.357991e+01 -3.807372e+00 2.800000e+02
    endloop
  endfacet
  facet normal -9.999712e-01 -7.591216e-03 9.473630e-16
    outer loop
      vertex   2.357991e+01 -3.807372e+00 2.800000e+02
      vertex   2.359661e+01 -6.007308e+00 2.500000e+02
      vertex   2.359661e+01 -6.007308e+00 2.800000e+02
    endloop
  endfacet
  facet normal 7.591216e-03 -9.999712e-01 1.877189e-18
    outer loop
      vertex   1.668011e+01 -3.859751e+00 2.500000e+02
      vertex   2.357991e+01 -3.807372e+00 2.500000e+02
      vertex   1.668011e+01 -3.859751e+00 2.800000e+02
    endloop
  endfacet
  facet normal 7.591216e-03 -9.999712e-01 -2.696942e-18
    outer loop
      vertex   1.668011e+01 -3.859751e+00 2.800000e+02
      vertex   2.357991e+01 -3.807372e+00 2.500000e+02
      vertex   2.357991e+01 -3.807372e+00 2.800000e+02
    endloop
  endfacet
  facet normal 9.999712e-01 7.591216e-03 -3.552503e-16
    outer loop
      vertex   1.669681e+01 -6.059688e+00 2.500000e+02
      vertex   1.668011e+01 -3.859751e+00 2.500000e+02
      vertex   1.669681e+01 -6.059688e+00 2.800000e+02
    endloop
  endfacet
  facet normal 9.999712e-01 7.591216e-03 2.368408e-16
    outer loop
      vertex   1.669681e+01 -6.059688e+00 2.800000e+02
      vertex   1.668011e+01 -3.859751e+00 2.500000e+02
      vertex   1.668011e+01 -3.859751e+00 2.800000e+02
    endloop
  endfacet
  facet normal -7.591216e-03 9.999712e-01 7.240585e-18
    outer loop
      vertex   2.359661e+01 -6.007308e+00 2.500000e+02
      vertex   1.669681e+01 -6.059688e+00 2.500000e+02
      vertex   2.359661e+01 -6.007308e+00 2.800000e+02
    endloop
  endfacet
  facet normal -7.591216e-03 9.999712e-01 2.696942e-18
    outer loop
      vertex   2.359661e+01 -6.007308e+00 2.800000e+02
      vertex   1.669681e+01 -6.059688e+00 2.500000e+02
      vertex   1.669681e+01 -6.059688e+00 2.800000e+02
    endloop
  endfacet
  facet normal -0.000000e+00 0.000000e+00 -1.000000e+00
    outer loop
      vertex   2.359661e+01 -6.007308e+00 2.800000e+02
      vertex   1.669681e+01 -6.059688e+00 2.800000e+02
      vertex   2.357991e+01 -3.807372e+00 2.800000e+02
    endloop
  endfacet
  facet normal -0.000000e+00 0.000000e+00 -1.000000e+00
    outer loop
      vertex   2.357991e+01 -3.807372e+00 2.800000e+02
      vertex   1.669681e+01 -6.059688e+00 2.800000e+02
      vertex   1.668011e+01 -3.859751e+00 2.800000e+02
    endloop
  endfacet
  facet normal 0.000000e+00 0.000000e+00 -1.000000e+00
    outer loop
      vertex   -2.330319e+01 -6.059688e+00 2.500000e+02
      vertex   -3.213901e+01 -1.396899e+00 2.500000e+02
      vertex   -2.331989e+01 -3.859751e+00 2.500000e+02
    endloop
  endfacet
  facet normal -0.000000e+00 0.000000e+00 -1.000000e+00
    outer loop
      vertex   -2.330319e+01 -6.059688e+00 2.500000e+02
      vertex   -3.213901e+01 -8.650461e+00 2.500000e+02
      vertex   -3.213901e+01 -1.396899e+00 2.500000e+02
    endloop
  endfacet
  facet normal -0.000000e+00 -0.000000e+00 -1.000000e+00
    outer loop
      vertex   -2.330319e+01 -6.059688e+00 2.500000e+02
      vertex   -1.225398e+01 -1.347611e+01 2.500000e+02
      vertex   -3.213901e+01 -8.650461e+00 2.500000e+02
    endloop
  endfacet
  facet normal 0.000000e+00 0.000000e+00 -1.000000e+00
    outer loop
      vertex   -2.330319e+01 -6.059688e+00 2.500000e+02
      vertex   -1.640339e+01 -6.007308e+00 2.500000e+02
      vertex   -1.225398e+01 -1.347611e+01 2.500000e+02
    endloop
  endfacet
  facet normal 0.000000e+00 0.000000e+00 -1.000000e+00
    outer loop
      vertex   -1.225398e+01 -1.347611e+01 2.500000e+02
      vertex   -1.640339e+01 -6.007308e+00 2.500000e+02
      vertex   -9.354214e-01 -8.391781e+00 2.500000e+02
    endloop
  endfacet
  facet normal 0.000000e+00 0.000000e+00 -1.000000e+00
    outer loop
      vertex   2.496006e-01 -1.863059e+01 2.500000e+02
      vertex   -9.354214e-01 -8.391781e+00 2.500000e+02
      vertex   1.264515e+00 -8.375080e+00 2.500000e+02
    endloop
  endfacet
  facet normal 0.000000e+00 0.000000e+00 -1.000000e+00
    outer loop
      vertex   1.275348e+01 -1.347611e+01 2.500000e+02
      vertex   1.264515e+00 -8.375080e+00 2.500000e+02
      vertex   1.669681e+01 -6.059688e+00 2.500000e+02
    endloop
  endfacet
  facet normal -0.000000e+00 0.000000e+00 -1.000000e+00
    outer loop
      vertex   2.359661e+01 -6.007308e+00 2.500000e+02
      vertex   1.275348e+01 -1.347611e+01 2.500000e+02
      vertex   1.669681e+01 -6.059688e+00 2.500000e+02
    endloop
  endfacet
  facet normal 0.000000e+00 -0.000000e+00 -1.000000e+00
    outer loop
      vertex   2.359661e+01 -6.007308e+00 2.500000e+02
      vertex   3.212661e+01 -8.650461e+00 2.500000e+02
      vertex   1.275348e+01 -1.347611e+01 2.500000e+02
    endloop
  endfacet
  facet normal 0.000000e+00 0.000000e+00 -1.000000e+00
    outer loop
      vertex   2.359661e+01 -6.007308e+00 2.500000e+02
      vertex   3.212661e+01 -1.396898e+00 2.500000e+02
      vertex   3.212661e+01 -8.650461e+00 2.500000e+02
    endloop
  endfacet
  facet normal 0.000000e+00 0.000000e+00 -1.000000e+00
    outer loop
      vertex   2.359661e+01 -6.007308e+00 2.500000e+02
      vertex   2.357991e+01 -3.807372e+00 2.500000e+02
      vertex   3.212661e+01 -1.396898e+00 2.500000e+02
    endloop
  endfacet
  facet normal -0.000000e+00 0.000000e+00 -1.000000e+00
    outer loop
      vertex   3.212661e+01 -1.396898e+00 2.500000e+02
      vertex   2.357991e+01 -3.807372e+00 2.500000e+02
      vertex   1.398233e+01 4.130169e+00 2.500000e+02
    endloop
  endfacet
  facet normal 0.000000e+00 -0.000000e+00 -1.000000e+00
    outer loop
      vertex   1.398233e+01 4.130169e+00 2.500000e+02
      vertex   2.357991e+01 -3.807372e+00 2.500000e+02
      vertex   1.668011e+01 -3.859751e+00 2.500000e+02
    endloop
  endfacet
  facet normal 0.000000e+00 -0.000000e+00 -1.000000e+00
    outer loop
      vertex   1.212136e+00 -1.475279e+00 2.500000e+02
      vertex   1.668011e+01 -3.859751e+00 2.500000e+02
      vertex   1.264515e+00 -8.375080e+00 2.500000e+02
    endloop
  endfacet
  facet normal 0.000000e+00 0.000000e+00 -1.000000e+00
    outer loop
      vertex   1.212136e+00 -1.475279e+00 2.500000e+02
      vertex   1.398233e+01 4.130169e+00 2.500000e+02
      vertex   1.668011e+01 -3.859751e+00 2.500000e+02
    endloop
  endfacet
  facet normal 0.000000e+00 0.000000e+00 -1.000000e+00
    outer loop
      vertex   1.212136e+00 -1.475279e+00 2.500000e+02
      vertex   1.589816e+00 9.239082e+00 2.500000e+02
      vertex   1.398233e+01 4.130169e+00 2.500000e+02
    endloop
  endfacet
  facet normal -0.000000e+00 0.000000e+00 -1.000000e+00
    outer loop
      vertex   1.212136e+00 -1.475279e+00 2.500000e+02
      vertex   -9.878007e-01 -1.491979e+00 2.500000e+02
      vertex   1.589816e+00 9.239082e+00 2.500000e+02
    endloop
  endfacet
  facet normal -0.000000e+00 0.000000e+00 -1.000000e+00
    outer loop
      vertex   1.589816e+00 9.239082e+00 2.500000e+02
      vertex   -9.878007e-01 -1.491979e+00 2.500000e+02
      vertex   -1.080340e+01 4.130167e+00 2.500000e+02
    endloop
  endfacet
  facet normal 0.000000e+00 -0.000000e+00 -1.000000e+00
    outer loop
      vertex   -1.080340e+01 4.130167e+00 2.500000e+02
      vertex   -9.878007e-01 -1.491979e+00 2.500000e+02
      vertex   -1.642009e+01 -3.807372e+00 2.500000e+02
    endloop
  endfacet
  facet normal 0.000000e+00 -0.000000e+00 -1.000000e+00
    outer loop
      vertex   -2.331989e+01 -3.859751e+00 2.500000e+02
      vertex   -1.080340e+01 4.130167e+00 2.500000e+02
      vertex   -1.642009e+01 -3.807372e+00 2.500000e+02
    endloop
  endfacet
  facet normal 0.000000e+00 0.000000e+00 -1.000000e+00
    outer loop
      vertex   -2.331989e+01 -3.859751e+00 2.500000e+02
      vertex   -3.213901e+01 -1.396899e+00 2.500000e+02
      vertex   -1.080340e+01 4.130167e+00 2.500000e+02
    endloop
  endfacet
  facet normal 0.000000e+00 0.000000e+00 -1.000000e+00
    outer loop
      vertex   -9.354214e-01 -8.391781e+00 2.500000e+02
      vertex   -1.640339e+01 -6.007308e+00 2.500000e+02
      vertex   -9.878007e-01 -1.491979e+00 2.500000e+02
    endloop
  endfacet
  facet normal -0.000000e+00 0.000000e+00 -1.000000e+00
    outer loop
      vertex   -9.878007e-01 -1.491979e+00 2.500000e+02
      vertex   -1.640339e+01 -6.007308e+00 2.500000e+02
      vertex   -1.642009e+01 -3.807372e+00 2.500000e+02
    endloop
  endfacet
  facet normal 0.000000e+00 0.000000e+00 -1.000000e+00
    outer loop
      vertex   -1.225398e+01 -1.347611e+01 2.500000e+02
      vertex   -9.354214e-01 -8.391781e+00 2.500000e+02
      vertex   2.496006e-01 -1.863059e+01 2.500000e+02
    endloop
  endfacet
  facet normal -0.000000e+00 0.000000e+00 -1.000000e+00
    outer loop
      vertex   1.669681e+01 -6.059688e+00 2.500000e+02
      vertex   1.264515e+00 -8.375080e+00 2.500000e+02
      vertex   1.668011e+01 -3.859751e+00 2.500000e+02
    endloop
  endfacet
  facet normal -0.000000e+00 0.000000e+00 -1.000000e+00
    outer loop
      vertex   1.275348e+01 -1.347611e+01 2.500000e+02
      vertex   2.496006e-01 -1.863059e+01 2.500000e+02
      vertex   1.264515e+00 -8.375080e+00 2.500000e+02
    endloop
  endfacet
  facet normal 2.913978e-01 9.566020e-01 -1.981549e-09
    outer loop
      vertex   1.398233e+01 4.130169e+00 2.500000e+02
      vertex   1.113456e+01 4.997651e+00 2.928192e+02
      vertex   3.212661e+01 -1.396898e+00 2.500000e+02
    endloop
  endfacet
  facet normal 2.913978e-01 9.566020e-01 -1.981549e-09
    outer loop
      vertex   3.212661e+01 -1.396898e+00 2.500000e+02
      vertex   1.113456e+01 4.997651e+00 2.928192e+02
      vertex   3.212661e+01 -1.396898e+00 3.027012e+02
    endloop
  endfacet
  facet normal 2.913978e-01 9.566020e-01 -1.981548e-09
    outer loop
      vertex   3.212661e+01 -1.396898e+00 3.027012e+02
      vertex   1.113456e+01 4.997651e+00 2.928192e+02
      vertex   8.286783e+00 5.865133e+00 3.356384e+02
    endloop
  endfacet
  facet normal 2.913978e-01 9.566020e-01 -1.981549e-09
    outer loop
      vertex   3.212661e+01 -1.396898e+00 3.554024e+02
      vertex   8.286783e+00 5.865133e+00 3.356384e+02
      vertex   5.439010e+00 6.732615e+00 3.784575e+02
    endloop
  endfacet
  facet normal 2.913978e-01 9.566020e-01 6.485017e-08
    outer loop
      vertex   3.212661e+01 -1.396898e+00 4.081036e+02
      vertex   5.439010e+00 6.732615e+00 3.784575e+02
      vertex   2.591233e+00 7.600095e+00 4.212767e+02
    endloop
  endfacet
  facet normal 2.695711e-01 9.615580e-01 -5.232252e-02
    outer loop
      vertex   2.591240e+00 7.600096e+00 4.212768e+02
      vertex   3.212661e+01 -1.396898e+00 4.081036e+02
      vertex   2.591233e+00 7.600095e+00 4.212767e+02
    endloop
  endfacet
  facet normal 2.913978e-01 9.566020e-01 -1.981549e-09
    outer loop
      vertex   2.591240e+00 7.600096e+00 4.212768e+02
      vertex   3.212661e+01 -1.396898e+00 4.608048e+02
      vertex   3.212661e+01 -1.396898e+00 4.081036e+02
    endloop
  endfacet
  facet normal 2.913978e-01 9.566020e-01 -1.981548e-09
    outer loop
      vertex   3.212661e+01 -1.396898e+00 3.027012e+02
      vertex   8.286783e+00 5.865133e+00 3.356384e+02
      vertex   3.212661e+01 -1.396898e+00 3.554024e+02
    endloop
  endfacet
  facet normal 2.913978e-01 9.566020e-01 -1.981548e-09
    outer loop
      vertex   3.212661e+01 -1.396898e+00 3.554024e+02
      vertex   5.439010e+00 6.732615e+00 3.784575e+02
      vertex   3.212661e+01 -1.396898e+00 4.081036e+02
    endloop
  endfacet
  facet normal 3.811314e-01 9.244972e-01 6.618321e-03
    outer loop
      vertex   1.398233e+01 4.130169e+00 2.500000e+02
      vertex   1.589816e+00 9.239082e+00 2.500000e+02
      vertex   1.113456e+01 4.997651e+00 2.928192e+02
    endloop
  endfacet
  facet normal 3.811314e-01 9.244972e-01 6.618320e-03
    outer loop
      vertex   1.113456e+01 4.997651e+00 2.928192e+02
      vertex   1.589816e+00 9.239082e+00 2.500000e+02
      vertex   1.840171e+00 8.829336e+00 2.928192e+02
    endloop
  endfacet
  facet normal 3.811314e-01 9.244972e-01 6.618319e-03
    outer loop
      vertex   8.286783e+00 5.865133e+00 3.356384e+02
      vertex   1.840171e+00 8.829336e+00 2.928192e+02
      vertex   2.090527e+00 8.419590e+00 3.356384e+02
    endloop
  endfacet
  facet normal 3.811315e-01 9.244972e-01 6.618319e-03
    outer loop
      vertex   5.439010e+00 6.732615e+00 3.784575e+02
      vertex   2.090527e+00 8.419590e+00 3.356384e+02
      vertex   2.340882e+00 8.009844e+00 3.784575e+02
    endloop
  endfacet
  facet normal 3.811315e-01 9.244972e-01 6.618404e-03
    outer loop
      vertex   2.591233e+00 7.600095e+00 4.212767e+02
      vertex   5.439010e+00 6.732615e+00 3.784575e+02
      vertex   2.340882e+00 8.009844e+00 3.784575e+02
    endloop
  endfacet
  facet normal 3.811314e-01 9.244972e-01 6.618322e-03
    outer loop
      vertex   1.113456e+01 4.997651e+00 2.928192e+02
      vertex   1.840171e+00 8.829336e+00 2.928192e+02
      vertex   8.286783e+00 5.865133e+00 3.356384e+02
    endloop
  endfacet
  facet normal 3.811314e-01 9.244972e-01 6.618323e-03
    outer loop
      vertex   8.286783e+00 5.865133e+00 3.356384e+02
      vertex   2.090527e+00 8.419590e+00 3.356384e+02
      vertex   5.439010e+00 6.732615e+00 3.784575e+02
    endloop
  endfacet
  facet normal -3.810980e-01 9.244683e-01 1.107465e-02
    outer loop
      vertex   -1.080340e+01 4.130167e+00 2.500000e+02
      vertex   -7.454745e+00 4.997648e+00 2.928192e+02
      vertex   1.589816e+00 9.239082e+00 2.500000e+02
    endloop
  endfacet
  facet normal -3.810980e-01 9.244683e-01 1.107465e-02
    outer loop
      vertex   1.589816e+00 9.239082e+00 2.500000e+02
      vertex   -7.454745e+00 4.997648e+00 2.928192e+02
      vertex   1.840171e+00 8.829336e+00 2.928192e+02
    endloop
  endfacet
  facet normal -3.810980e-01 9.244683e-01 1.107465e-02
    outer loop
      vertex   1.840171e+00 8.829336e+00 2.928192e+02
      vertex   -7.454745e+00 4.997648e+00 2.928192e+02
      vertex   -4.106088e+00 5.865129e+00 3.356384e+02
    endloop
  endfacet
  facet normal -3.810980e-01 9.244683e-01 1.107465e-02
    outer loop
      vertex   2.090527e+00 8.419590e+00 3.356384e+02
      vertex   -4.106088e+00 5.865129e+00 3.356384e+02
      vertex   -7.574314e-01 6.732611e+00 3.784575e+02
    endloop
  endfacet
  facet normal -3.810980e-01 9.244683e-01 1.107465e-02
    outer loop
      vertex   2.340882e+00 8.009844e+00 3.784575e+02
      vertex   -7.574314e-01 6.732611e+00 3.784575e+02
      vertex   2.591233e+00 7.600095e+00 4.212767e+02
    endloop
  endfacet
  facet normal -3.810980e-01 9.244683e-01 1.107465e-02
    outer loop
      vertex   2.340882e+00 8.009844e+00 3.784575e+02
      vertex   2.090527e+00 8.419590e+00 3.356384e+02
      vertex   -7.574314e-01 6.732611e+00 3.784575e+02
    endloop
  endfacet
  facet normal -3.810980e-01 9.244683e-01 1.107465e-02
    outer loop
      vertex   1.840171e+00 8.829336e+00 2.928192e+02
      vertex   -4.106088e+00 5.865129e+00 3.356384e+02
      vertex   2.090527e+00 8.419590e+00 3.356384e+02
    endloop
  endfacet
  facet normal -2.507756e-01 9.680452e-01 2.376597e-09
    outer loop
      vertex   -1.080340e+01 4.130167e+00 2.500000e+02
      vertex   -3.213901e+01 -1.396899e+00 2.500000e+02
      vertex   -7.454745e+00 4.997648e+00 2.928192e+02
    endloop
  endfacet
  facet normal -2.507756e-01 9.680452e-01 2.376597e-09
    outer loop
      vertex   -7.454745e+00 4.997648e+00 2.928192e+02
      vertex   -3.213901e+01 -1.396899e+00 2.500000e+02
      vertex   -3.213901e+01 -1.396899e+00 3.027012e+02
    endloop
  endfacet
  facet normal -2.507756e-01 9.680452e-01 2.376597e-09
    outer loop
      vertex   -4.106088e+00 5.865129e+00 3.356384e+02
      vertex   -3.213901e+01 -1.396899e+00 3.027012e+02
      vertex   -3.213901e+01 -1.396899e+00 3.554024e+02
    endloop
  endfacet
  facet normal -2.507756e-01 9.680452e-01 2.376597e-09
    outer loop
      vertex   -7.574314e-01 6.732611e+00 3.784575e+02
      vertex   -3.213901e+01 -1.396899e+00 3.554024e+02
      vertex   -3.213901e+01 -1.396899e+00 4.081036e+02
    endloop
  endfacet
  facet normal -2.581040e-01 9.658934e-01 2.079049e-02
    outer loop
      vertex   2.591233e+00 7.600095e+00 4.212767e+02
      vertex   -3.213901e+01 -1.396899e+00 4.081036e+02
      vertex   2.591240e+00 7.600096e+00 4.212768e+02
    endloop
  endfacet
  facet normal -2.507756e-01 9.680452e-01 -2.149252e-08
    outer loop
      vertex   2.591233e+00 7.600095e+00 4.212767e+02
      vertex   -7.574314e-01 6.732611e+00 3.784575e+02
      vertex   -3.213901e+01 -1.396899e+00 4.081036e+02
    endloop
  endfacet
  facet normal -2.507756e-01 9.680452e-01 2.376597e-09
    outer loop
      vertex   -7.454745e+00 4.997648e+00 2.928192e+02
      vertex   -3.213901e+01 -1.396899e+00 3.027012e+02
      vertex   -4.106088e+00 5.865129e+00 3.356384e+02
    endloop
  endfacet
  facet normal -2.507756e-01 9.680452e-01 2.376597e-09
    outer loop
      vertex   -4.106088e+00 5.865129e+00 3.356384e+02
      vertex   -3.213901e+01 -1.396899e+00 3.554024e+02
      vertex   -7.574314e-01 6.732611e+00 3.784575e+02
    endloop
  endfacet
  facet normal -2.507756e-01 9.680452e-01 2.376596e-09
    outer loop
      vertex   -3.213901e+01 -1.396899e+00 4.081036e+02
      vertex   -3.213900e+01 -1.396898e+00 4.608048e+02
      vertex   2.591240e+00 7.600096e+00 4.212768e+02
    endloop
  endfacet
  facet normal -1.000000e+00 0.000000e+00 0.000000e+00
    outer loop
      vertex   -3.213901e+01 -8.650461e+00 2.500000e+02
      vertex   -3.213901e+01 -8.650460e+00 3.027012e+02
      vertex   -3.213901e+01 -1.396899e+00 2.500000e+02
    endloop
  endfacet
  facet normal -1.000000e+00 0.000000e+00 0.000000e+00
    outer loop
      vertex   -3.213901e+01 -1.396899e+00 2.500000e+02
      vertex   -3.213901e+01 -8.650460e+00 3.027012e+02
      vertex   -3.213901e+01 -1.396899e+00 3.027012e+02
    endloop
  endfacet
  facet normal -1.000000e+00 -0.000000e+00 0.000000e+00
    outer loop
      vertex   -3.213901e+01 -1.396899e+00 3.027012e+02
      vertex   -3.213901e+01 -8.650460e+00 3.027012e+02
      vertex   -3.213901e+01 -8.650460e+00 3.554024e+02
    endloop
  endfacet
  facet normal -1.000000e+00 -0.000000e+00 0.000000e+00
    outer loop
      vertex   -3.213901e+01 -1.396899e+00 3.554024e+02
      vertex   -3.213901e+01 -8.650460e+00 3.554024e+02
      vertex   -3.213901e+01 -8.650460e+00 4.081036e+02
    endloop
  endfacet
  facet normal -1.000000e+00 -0.000000e+00 0.000000e+00
    outer loop
      vertex   -3.213901e+01 -1.396899e+00 4.081036e+02
      vertex   -3.213901e+01 -8.650460e+00 4.081036e+02
      vertex   -3.213901e+01 -8.650461e+00 4.608048e+02
    endloop
  endfacet
  facet normal -1.000000e+00 6.296058e-07 8.665617e-08
    outer loop
      vertex   -3.213900e+01 -1.396898e+00 4.608048e+02
      vertex   -3.213901e+01 -1.396899e+00 4.081036e+02
      vertex   -3.213901e+01 -8.650461e+00 4.608048e+02
    endloop
  endfacet
  facet normal -1.000000e+00 0.000000e+00 0.000000e+00
    outer loop
      vertex   -3.213901e+01 -1.396899e+00 3.027012e+02
      vertex   -3.213901e+01 -8.650460e+00 3.554024e+02
      vertex   -3.213901e+01 -1.396899e+00 3.554024e+02
    endloop
  endfacet
  facet normal -1.000000e+00 0.000000e+00 0.000000e+00
    outer loop
      vertex   -3.213901e+01 -1.396899e+00 3.554024e+02
      vertex   -3.213901e+01 -8.650460e+00 4.081036e+02
      vertex   -3.213901e+01 -1.396899e+00 4.081036e+02
    endloop
  endfacet
  facet normal -3.811007e-01 -9.244629e-01 1.142542e-02
    outer loop
      vertex   -1.225398e+01 -1.347611e+01 2.500000e+02
      vertex   2.496006e-01 -1.863059e+01 2.500000e+02
      vertex   -9.087285e+00 -1.424460e+01 2.934462e+02
    endloop
  endfacet
  facet normal -3.811006e-01 -9.244630e-01 1.142544e-02
    outer loop
      vertex   -9.087285e+00 -1.424460e+01 2.934462e+02
      vertex   2.496006e-01 -1.863059e+01 2.500000e+02
      vertex   2.903977e-01 -1.811045e+01 2.934462e+02
    endloop
  endfacet
  facet normal -3.811006e-01 -9.244630e-01 1.142544e-02
    outer loop
      vertex   -5.920594e+00 -1.501308e+01 3.368925e+02
      vertex   2.903977e-01 -1.811045e+01 2.934462e+02
      vertex   3.311948e-01 -1.759032e+01 3.368925e+02
    endloop
  endfacet
  facet normal -3.811006e-01 -9.244630e-01 1.142544e-02
    outer loop
      vertex   -2.753902e+00 -1.578157e+01 3.803387e+02
      vertex   3.311948e-01 -1.759032e+01 3.368925e+02
      vertex   3.719920e-01 -1.707019e+01 3.803387e+02
    endloop
  endfacet
  facet normal -3.811006e-01 -9.244630e-01 1.142544e-02
    outer loop
      vertex   4.127891e-01 -1.655005e+01 4.237849e+02
      vertex   -2.753902e+00 -1.578157e+01 3.803387e+02
      vertex   3.719920e-01 -1.707019e+01 3.803387e+02
    endloop
  endfacet
  facet normal -3.811006e-01 -9.244630e-01 1.142544e-02
    outer loop
      vertex   -9.087285e+00 -1.424460e+01 2.934462e+02
      vertex   2.903977e-01 -1.811045e+01 2.934462e+02
      vertex   -5.920594e+00 -1.501308e+01 3.368925e+02
    endloop
  endfacet
  facet normal -3.811006e-01 -9.244630e-01 1.142544e-02
    outer loop
      vertex   -5.920594e+00 -1.501308e+01 3.368925e+02
      vertex   3.311948e-01 -1.759032e+01 3.368925e+02
      vertex   -2.753902e+00 -1.578157e+01 3.803387e+02
    endloop
  endfacet
  facet normal 3.810959e-01 -9.244735e-01 1.070984e-02
    outer loop
      vertex   1.275348e+01 -1.347611e+01 2.500000e+02
      vertex   9.668310e+00 -1.424459e+01 2.934462e+02
      vertex   2.496006e-01 -1.863059e+01 2.500000e+02
    endloop
  endfacet
  facet normal 3.810959e-01 -9.244735e-01 1.070984e-02
    outer loop
      vertex   2.496006e-01 -1.863059e+01 2.500000e+02
      vertex   9.668310e+00 -1.424459e+01 2.934462e+02
      vertex   2.903977e-01 -1.811045e+01 2.934462e+02
    endloop
  endfacet
  facet normal 3.810959e-01 -9.244735e-01 1.070984e-02
    outer loop
      vertex   2.903977e-01 -1.811045e+01 2.934462e+02
      vertex   9.668310e+00 -1.424459e+01 2.934462e+02
      vertex   6.583139e+00 -1.501308e+01 3.368925e+02
    endloop
  endfacet
  facet normal 3.810959e-01 -9.244735e-01 1.070984e-02
    outer loop
      vertex   3.311948e-01 -1.759032e+01 3.368925e+02
      vertex   6.583139e+00 -1.501308e+01 3.368925e+02
      vertex   3.497968e+00 -1.578156e+01 3.803387e+02
    endloop
  endfacet
  facet normal 3.810959e-01 -9.244735e-01 1.070984e-02
    outer loop
      vertex   3.719920e-01 -1.707019e+01 3.803387e+02
      vertex   3.497968e+00 -1.578156e+01 3.803387e+02
      vertex   4.127891e-01 -1.655005e+01 4.237849e+02
    endloop
  endfacet
  facet normal 3.810959e-01 -9.244735e-01 1.070984e-02
    outer loop
      vertex   3.719920e-01 -1.707019e+01 3.803387e+02
      vertex   3.311948e-01 -1.759032e+01 3.368925e+02
      vertex   3.497968e+00 -1.578156e+01 3.803387e+02
    endloop
  endfacet
  facet normal 3.810959e-01 -9.244735e-01 1.070984e-02
    outer loop
      vertex   2.903977e-01 -1.811045e+01 2.934462e+02
      vertex   6.583139e+00 -1.501308e+01 3.368925e+02
      vertex   3.311948e-01 -1.759032e+01 3.368925e+02
    endloop
  endfacet
  facet normal 2.417043e-01 -9.703500e-01 1.044964e-09
    outer loop
      vertex   1.275348e+01 -1.347611e+01 2.500000e+02
      vertex   3.212661e+01 -8.650461e+00 2.500000e+02
      vertex   9.668310e+00 -1.424459e+01 2.934462e+02
    endloop
  endfacet
  facet normal 2.417043e-01 -9.703500e-01 1.044964e-09
    outer loop
      vertex   9.668310e+00 -1.424459e+01 2.934462e+02
      vertex   3.212661e+01 -8.650461e+00 2.500000e+02
      vertex   3.212661e+01 -8.650461e+00 3.027012e+02
    endloop
  endfacet
  facet normal 2.417043e-01 -9.703500e-01 1.044964e-09
    outer loop
      vertex   6.583139e+00 -1.501308e+01 3.368925e+02
      vertex   3.212661e+01 -8.650461e+00 3.027012e+02
      vertex   3.212661e+01 -8.650461e+00 3.554024e+02
    endloop
  endfacet
  facet normal 2.417043e-01 -9.703500e-01 1.044964e-09
    outer loop
      vertex   3.497968e+00 -1.578156e+01 3.803387e+02
      vertex   3.212661e+01 -8.650461e+00 3.554024e+02
      vertex   3.212661e+01 -8.650461e+00 4.081036e+02
    endloop
  endfacet
  facet normal 2.465977e-01 -9.690606e-01 1.054582e-02
    outer loop
      vertex   4.127891e-01 -1.655005e+01 4.237849e+02
      vertex   3.212661e+01 -8.650461e+00 4.081036e+02
      vertex   4.127908e-01 -1.655005e+01 4.237851e+02
    endloop
  endfacet
  facet normal 2.417043e-01 -9.703499e-01 -2.541151e-08
    outer loop
      vertex   4.127891e-01 -1.655005e+01 4.237849e+02
      vertex   3.497968e+00 -1.578156e+01 3.803387e+02
      vertex   3.212661e+01 -8.650461e+00 4.081036e+02
    endloop
  endfacet
  facet normal 2.417043e-01 -9.703500e-01 1.044964e-09
    outer loop
      vertex   9.668310e+00 -1.424459e+01 2.934462e+02
      vertex   3.212661e+01 -8.650461e+00 3.027012e+02
      vertex   6.583139e+00 -1.501308e+01 3.368925e+02
    endloop
  endfacet
  facet normal 2.417043e-01 -9.703500e-01 1.044964e-09
    outer loop
      vertex   6.583139e+00 -1.501308e+01 3.368925e+02
      vertex   3.212661e+01 -8.650461e+00 3.554024e+02
      vertex   3.497968e+00 -1.578156e+01 3.803387e+02
    endloop
  endfacet
  facet normal 2.417043e-01 -9.703500e-01 -2.835499e-08
    outer loop
      vertex   3.212661e+01 -8.650461e+00 4.081036e+02
      vertex   3.212661e+01 -8.650462e+00 4.608048e+02
      vertex   4.127908e-01 -1.655005e+01 4.237851e+02
    endloop
  endfacet
  facet normal 1.000000e+00 0.000000e+00 -0.000000e+00
    outer loop
      vertex   3.212661e+01 -8.650461e+00 2.500000e+02
      vertex   3.212661e+01 -1.396898e+00 2.500000e+02
      vertex   3.212661e+01 -8.650461e+00 3.027012e+02
    endloop
  endfacet
  facet normal 1.000000e+00 -0.000000e+00 0.000000e+00
    outer loop
      vertex   3.212661e+01 -8.650461e+00 3.027012e+02
      vertex   3.212661e+01 -1.396898e+00 2.500000e+02
      vertex   3.212661e+01 -1.396898e+00 3.027012e+02
    endloop
  endfacet
  facet normal 1.000000e+00 -0.000000e+00 0.000000e+00
    outer loop
      vertex   3.212661e+01 -8.650461e+00 3.554024e+02
      vertex   3.212661e+01 -1.396898e+00 3.027012e+02
      vertex   3.212661e+01 -1.396898e+00 3.554024e+02
    endloop
  endfacet
  facet normal 1.000000e+00 -0.000000e+00 0.000000e+00
    outer loop
      vertex   3.212661e+01 -8.650461e+00 4.081036e+02
      vertex   3.212661e+01 -1.396898e+00 3.554024e+02
      vertex   3.212661e+01 -1.396898e+00 4.081036e+02
    endloop
  endfacet
  facet normal 1.000000e+00 0.000000e+00 0.000000e+00
    outer loop
      vertex   3.212661e+01 -1.396898e+00 4.608048e+02
      vertex   3.212661e+01 -8.650461e+00 4.081036e+02
      vertex   3.212661e+01 -1.396898e+00 4.081036e+02
    endloop
  endfacet
  facet normal 1.000000e+00 0.000000e+00 0.000000e+00
    outer loop
      vertex   3.212661e+01 -1.396898e+00 4.608048e+02
      vertex   3.212661e+01 -8.650462e+00 4.608048e+02
      vertex   3.212661e+01 -8.650461e+00 4.081036e+02
    endloop
  endfacet
  facet normal 1.000000e+00 0.000000e+00 -0.000000e+00
    outer loop
      vertex   3.212661e+01 -8.650461e+00 3.027012e+02
      vertex   3.212661e+01 -1.396898e+00 3.027012e+02
      vertex   3.212661e+01 -8.650461e+00 3.554024e+02
    endloop
  endfacet
  facet normal 1.000000e+00 0.000000e+00 -0.000000e+00
    outer loop
      vertex   3.212661e+01 -8.650461e+00 3.554024e+02
      vertex   3.212661e+01 -1.396898e+00 3.554024e+02
      vertex   3.212661e+01 -8.650461e+00 4.081036e+02
    endloop
  endfacet
  facet normal -2.358325e-01 -9.717937e-01 3.461127e-09
    outer loop
      vertex   -1.225398e+01 -1.347611e+01 2.500000e+02
      vertex   -9.087290e+00 -1.424459e+01 2.934463e+02
      vertex   -3.213901e+01 -8.650461e+00 2.500000e+02
    endloop
  endfacet
  facet normal -2.358325e-01 -9.717937e-01 3.461127e-09
    outer loop
      vertex   -3.213901e+01 -8.650461e+00 2.500000e+02
      vertex   -9.087290e+00 -1.424459e+01 2.934463e+02
      vertex   -3.213901e+01 -8.650460e+00 3.027012e+02
    endloop
  endfacet
  facet normal -2.358325e-01 -9.717937e-01 3.461127e-09
    outer loop
      vertex   -3.213901e+01 -8.650460e+00 3.027012e+02
      vertex   -9.087290e+00 -1.424459e+01 2.934463e+02
      vertex   -5.920597e+00 -1.501308e+01 3.368925e+02
    endloop
  endfacet
  facet normal -2.358325e-01 -9.717937e-01 3.461127e-09
    outer loop
      vertex   -3.213901e+01 -8.650460e+00 3.554024e+02
      vertex   -5.920597e+00 -1.501308e+01 3.368925e+02
      vertex   -2.753905e+00 -1.578156e+01 3.803388e+02
    endloop
  endfacet
  facet normal -2.358325e-01 -9.717937e-01 -1.968083e-08
    outer loop
      vertex   -3.213901e+01 -8.650460e+00 4.081036e+02
      vertex   -2.753905e+00 -1.578156e+01 3.803388e+02
      vertex   4.127908e-01 -1.655005e+01 4.237851e+02
    endloop
  endfacet
  facet normal -2.483902e-01 -9.682597e-01 2.784774e-02
    outer loop
      vertex   4.127851e-01 -1.655005e+01 4.237851e+02
      vertex   -3.213901e+01 -8.650460e+00 4.081036e+02
      vertex   4.127908e-01 -1.655005e+01 4.237851e+02
    endloop
  endfacet
  facet normal -2.358324e-01 -9.717937e-01 -2.392042e-08
    outer loop
      vertex   4.127851e-01 -1.655005e+01 4.237851e+02
      vertex   -3.213901e+01 -8.650461e+00 4.608048e+02
      vertex   -3.213901e+01 -8.650460e+00 4.081036e+02
    endloop
  endfacet
  facet normal -2.358325e-01 -9.717937e-01 3.461127e-09
    outer loop
      vertex   -3.213901e+01 -8.650460e+00 3.027012e+02
      vertex   -5.920597e+00 -1.501308e+01 3.368925e+02
      vertex   -3.213901e+01 -8.650460e+00 3.554024e+02
    endloop
  endfacet
  facet normal -2.358325e-01 -9.717937e-01 3.461127e-09
    outer loop
      vertex   -3.213901e+01 -8.650460e+00 3.554024e+02
      vertex   -2.753905e+00 -1.578156e+01 3.803388e+02
      vertex   -3.213901e+01 -8.650460e+00 4.081036e+02
    endloop
  endfacet
  facet normal -4.913773e-01 -8.707076e-01 2.041407e-02
    outer loop
      vertex   4.127891e-01 -1.655005e+01 4.237849e+02
      vertex   4.127908e-01 -1.655005e+01 4.237851e+02
      vertex   -2.753902e+00 -1.578157e+01 3.803387e+02
    endloop
  endfacet
  facet normal -4.913773e-01 -8.707076e-01 2.041407e-02
    outer loop
      vertex   -2.753902e+00 -1.578157e+01 3.803387e+02
      vertex   4.127908e-01 -1.655005e+01 4.237851e+02
      vertex   -2.753905e+00 -1.578156e+01 3.803388e+02
    endloop
  endfacet
  facet normal -4.913773e-01 -8.707076e-01 2.041407e-02
    outer loop
      vertex   -5.920597e+00 -1.501308e+01 3.368925e+02
      vertex   -2.753902e+00 -1.578157e+01 3.803387e+02
      vertex   -2.753905e+00 -1.578156e+01 3.803388e+02
    endloop
  endfacet
  facet normal -4.913773e-01 -8.707076e-01 2.041407e-02
    outer loop
      vertex   -5.920597e+00 -1.501308e+01 3.368925e+02
      vertex   -5.920594e+00 -1.501308e+01 3.368925e+02
      vertex   -2.753902e+00 -1.578157e+01 3.803387e+02
    endloop
  endfacet
  facet normal -4.913773e-01 -8.707076e-01 2.041407e-02
    outer loop
      vertex   -5.920597e+00 -1.501308e+01 3.368925e+02
      vertex   -9.087290e+00 -1.424459e+01 2.934463e+02
      vertex   -5.920594e+00 -1.501308e+01 3.368925e+02
    endloop
  endfacet
  facet normal -4.913773e-01 -8.707076e-01 2.041407e-02
    outer loop
      vertex   -5.920594e+00 -1.501308e+01 3.368925e+02
      vertex   -9.087290e+00 -1.424459e+01 2.934463e+02
      vertex   -9.087285e+00 -1.424460e+01 2.934462e+02
    endloop
  endfacet
  facet normal -4.913773e-01 -8.707076e-01 2.041407e-02
    outer loop
      vertex   -9.087285e+00 -1.424460e+01 2.934462e+02
      vertex   -9.087290e+00 -1.424459e+01 2.934463e+02
      vertex   -1.225398e+01 -1.347611e+01 2.500000e+02
    endloop
  endfacet
  facet normal 1.169951e-01 -9.869791e-01 1.103833e-01
    outer loop
      vertex   7.708942e+00 -8.652147e+00 4.866700e+02
      vertex   7.356120e+00 -8.657198e+00 4.869988e+02
      vertex   8.047349e+00 -8.650463e+00 4.863264e+02
    endloop
  endfacet
  facet normal 1.169951e-01 -9.869791e-01 1.103833e-01
    outer loop
      vertex   8.047349e+00 -8.650463e+00 4.863264e+02
      vertex   7.356120e+00 -8.657198e+00 4.869988e+02
      vertex   6.989530e+00 -8.665606e+00 4.873122e+02
    endloop
  endfacet
  facet normal 1.169951e-01 -9.869791e-01 1.103833e-01
    outer loop
      vertex   6.609846e+00 -8.677356e+00 4.876096e+02
      vertex   8.047349e+00 -8.650463e+00 4.863264e+02
      vertex   6.989530e+00 -8.665606e+00 4.873122e+02
    endloop
  endfacet
  facet normal 1.169951e-01 -9.869791e-01 1.103833e-01
    outer loop
      vertex   6.609846e+00 -8.677356e+00 4.876096e+02
      vertex   6.217766e+00 -8.692425e+00 4.878904e+02
      vertex   8.047349e+00 -8.650463e+00 4.863264e+02
    endloop
  endfacet
  facet normal 1.169951e-01 -9.869791e-01 1.103833e-01
    outer loop
      vertex   8.047349e+00 -8.650463e+00 4.863264e+02
      vertex   6.217766e+00 -8.692425e+00 4.878904e+02
      vertex   5.814010e+00 -8.710787e+00 4.881542e+02
    endloop
  endfacet
  facet normal 1.169951e-01 -9.869791e-01 1.103833e-01
    outer loop
      vertex   5.399321e+00 -8.732407e+00 4.884004e+02
      vertex   8.047349e+00 -8.650463e+00 4.863264e+02
      vertex   5.814010e+00 -8.710787e+00 4.881542e+02
    endloop
  endfacet
  facet normal 1.169951e-01 -9.869791e-01 1.103833e-01
    outer loop
      vertex   5.399321e+00 -8.732407e+00 4.884004e+02
      vertex   4.974460e+00 -8.757245e+00 4.886286e+02
      vertex   8.047349e+00 -8.650463e+00 4.863264e+02
    endloop
  endfacet
  facet normal 1.169951e-01 -9.869791e-01 1.103833e-01
    outer loop
      vertex   8.047349e+00 -8.650463e+00 4.863264e+02
      vertex   4.974460e+00 -8.757245e+00 4.886286e+02
      vertex   4.540208e+00 -8.785257e+00 4.888384e+02
    endloop
  endfacet
  facet normal 1.169951e-01 -9.869791e-01 1.103833e-01
    outer loop
      vertex   4.097364e+00 -8.816391e+00 4.890294e+02
      vertex   8.047349e+00 -8.650463e+00 4.863264e+02
      vertex   4.540208e+00 -8.785257e+00 4.888384e+02
    endloop
  endfacet
  facet normal 1.169951e-01 -9.869791e-01 1.103833e-01
    outer loop
      vertex   4.097364e+00 -8.816391e+00 4.890294e+02
      vertex   3.646741e+00 -8.850589e+00 4.892012e+02
      vertex   8.047349e+00 -8.650463e+00 4.863264e+02
    endloop
  endfacet
  facet normal 1.169951e-01 -9.869791e-01 1.103833e-01
    outer loop
      vertex   8.047349e+00 -8.650463e+00 4.863264e+02
      vertex   3.646741e+00 -8.850589e+00 4.892012e+02
      vertex   3.189168e+00 -8.887789e+00 4.893536e+02
    endloop
  endfacet
  facet normal 1.169951e-01 -9.869791e-01 1.103833e-01
    outer loop
      vertex   2.725484e+00 -8.927922e+00 4.894862e+02
      vertex   8.047349e+00 -8.650463e+00 4.863264e+02
      vertex   3.189168e+00 -8.887789e+00 4.893536e+02
    endloop
  endfacet
  facet normal 1.169951e-01 -9.869791e-01 1.103833e-01
    outer loop
      vertex   2.725484e+00 -8.927922e+00 4.894862e+02
      vertex   2.256543e+00 -8.970914e+00 4.895988e+02
      vertex   8.047349e+00 -8.650463e+00 4.863264e+02
    endloop
  endfacet
  facet normal 1.169951e-01 -9.869791e-01 1.103833e-01
    outer loop
      vertex   8.047349e+00 -8.650463e+00 4.863264e+02
      vertex   2.256543e+00 -8.970914e+00 4.895988e+02
      vertex   1.783206e+00 -9.016687e+00 4.896912e+02
    endloop
  endfacet
  facet normal 1.169951e-01 -9.869791e-01 1.103833e-01
    outer loop
      vertex   1.306343e+00 -9.065156e+00 4.897633e+02
      vertex   8.047349e+00 -8.650463e+00 4.863264e+02
      vertex   1.783206e+00 -9.016687e+00 4.896912e+02
    endloop
  endfacet
  facet normal 1.169951e-01 -9.869791e-01 1.103833e-01
    outer loop
      vertex   1.306343e+00 -9.065156e+00 4.897633e+02
      vertex   8.268300e-01 -9.116232e+00 4.898148e+02
      vertex   8.047349e+00 -8.650463e+00 4.863264e+02
    endloop
  endfacet
  facet normal 1.169951e-01 -9.869791e-01 1.103833e-01
    outer loop
      vertex   8.047349e+00 -8.650463e+00 4.863264e+02
      vertex   8.268300e-01 -9.116232e+00 4.898148e+02
      vertex   3.455488e-01 -9.169822e+00 4.898458e+02
    endloop
  endfacet
  facet normal 1.169951e-01 -9.869791e-01 1.103833e-01
    outer loop
      vertex   -1.366164e-01 -9.225826e+00 4.898561e+02
      vertex   8.047349e+00 -8.650463e+00 4.863264e+02
      vertex   3.455488e-01 -9.169822e+00 4.898458e+02
    endloop
  endfacet
  facet normal 1.169951e-01 -9.869791e-01 1.103833e-01
    outer loop
      vertex   -1.366164e-01 -9.225826e+00 4.898561e+02
      vertex   1.380844e-01 -1.288794e+01 4.568206e+02
      vertex   8.047349e+00 -8.650463e+00 4.863264e+02
    endloop
  endfacet
  facet normal 1.169951e-01 -9.869791e-01 1.103833e-01
    outer loop
      vertex   8.047349e+00 -8.650463e+00 4.863264e+02
      vertex   1.380844e-01 -1.288794e+01 4.568206e+02
      vertex   3.212661e+01 -8.650462e+00 4.608048e+02
    endloop
  endfacet
  facet normal 1.169951e-01 -9.869791e-01 1.103833e-01
    outer loop
      vertex   3.212661e+01 -8.650462e+00 4.608048e+02
      vertex   1.380844e-01 -1.288794e+01 4.568206e+02
      vertex   4.127851e-01 -1.655005e+01 4.237851e+02
    endloop
  endfacet
  facet normal 1.386740e-01 -9.860907e-01 9.162200e-02
    outer loop
      vertex   4.127908e-01 -1.655005e+01 4.237851e+02
      vertex   3.212661e+01 -8.650462e+00 4.608048e+02
      vertex   4.127851e-01 -1.655005e+01 4.237851e+02
    endloop
  endfacet
  facet normal -1.162241e-01 -9.872814e-01 1.084775e-01
    outer loop
      vertex   1.380844e-01 -1.288794e+01 4.568206e+02
      vertex   -1.366164e-01 -9.225826e+00 4.898561e+02
      vertex   -8.021037e+00 -8.652148e+00 4.866298e+02
    endloop
  endfacet
  facet normal -1.162241e-01 -9.872814e-01 1.084775e-01
    outer loop
      vertex   -8.359776e+00 -8.650462e+00 4.862822e+02
      vertex   1.380844e-01 -1.288794e+01 4.568206e+02
      vertex   -8.021037e+00 -8.652148e+00 4.866298e+02
    endloop
  endfacet
  facet normal -1.162241e-01 -9.872814e-01 1.084775e-01
    outer loop
      vertex   -8.359776e+00 -8.650462e+00 4.862822e+02
      vertex   -3.213901e+01 -8.650461e+00 4.608048e+02
      vertex   1.380844e-01 -1.288794e+01 4.568206e+02
    endloop
  endfacet
  facet normal -1.162241e-01 -9.872814e-01 1.084775e-01
    outer loop
      vertex   1.380844e-01 -1.288794e+01 4.568206e+02
      vertex   -3.213901e+01 -8.650461e+00 4.608048e+02
      vertex   4.127851e-01 -1.655005e+01 4.237851e+02
    endloop
  endfacet
  facet normal -1.162241e-01 -9.872814e-01 1.084775e-01
    outer loop
      vertex   -1.366164e-01 -9.225826e+00 4.898561e+02
      vertex   -6.218472e-01 -9.169860e+00 4.898455e+02
      vertex   -8.021037e+00 -8.652148e+00 4.866298e+02
    endloop
  endfacet
  facet normal -1.162241e-01 -9.872814e-01 1.084775e-01
    outer loop
      vertex   -8.021037e+00 -8.652148e+00 4.866298e+02
      vertex   -6.218472e-01 -9.169860e+00 4.898455e+02
      vertex   -1.106173e+00 -9.116299e+00 4.898141e+02
    endloop
  endfacet
  facet normal -1.162241e-01 -9.872814e-01 1.084775e-01
    outer loop
      vertex   -1.588692e+00 -9.065242e+00 4.897618e+02
      vertex   -8.021037e+00 -8.652148e+00 4.866298e+02
      vertex   -1.106173e+00 -9.116299e+00 4.898141e+02
    endloop
  endfacet
  facet normal -1.162241e-01 -9.872814e-01 1.084775e-01
    outer loop
      vertex   -1.588692e+00 -9.065242e+00 4.897618e+02
      vertex   -2.068506e+00 -9.016786e+00 4.896887e+02
      vertex   -8.021037e+00 -8.652148e+00 4.866298e+02
    endloop
  endfacet
  facet normal -1.162241e-01 -9.872814e-01 1.084775e-01
    outer loop
      vertex   -8.021037e+00 -8.652148e+00 4.866298e+02
      vertex   -2.068506e+00 -9.016786e+00 4.896887e+02
      vertex   -2.544722e+00 -8.971019e+00 4.895951e+02
    endloop
  endfacet
  facet normal -1.162241e-01 -9.872814e-01 1.084775e-01
    outer loop
      vertex   -7.667621e+00 -8.657202e+00 4.869624e+02
      vertex   -2.544722e+00 -8.971019e+00 4.895951e+02
      vertex   -3.016454e+00 -8.928027e+00 4.894809e+02
    endloop
  endfacet
  facet normal -1.162241e-01 -9.872814e-01 1.084775e-01
    outer loop
      vertex   -3.482824e+00 -8.887891e+00 4.893465e+02
      vertex   -7.667621e+00 -8.657202e+00 4.869624e+02
      vertex   -3.016454e+00 -8.928027e+00 4.894809e+02
    endloop
  endfacet
  facet normal -1.162241e-01 -9.872814e-01 1.084775e-01
    outer loop
      vertex   -3.482824e+00 -8.887891e+00 4.893465e+02
      vertex   -3.942964e+00 -8.850684e+00 4.891922e+02
      vertex   -7.667621e+00 -8.657202e+00 4.869624e+02
    endloop
  endfacet
  facet normal -1.162241e-01 -9.872814e-01 1.084775e-01
    outer loop
      vertex   -7.667621e+00 -8.657202e+00 4.869624e+02
      vertex   -3.942964e+00 -8.850684e+00 4.891922e+02
      vertex   -4.396017e+00 -8.816477e+00 4.890181e+02
    endloop
  endfacet
  facet normal -1.162241e-01 -9.872814e-01 1.084775e-01
    outer loop
      vertex   -4.841141e+00 -8.785332e+00 4.888246e+02
      vertex   -7.667621e+00 -8.657202e+00 4.869624e+02
      vertex   -4.396017e+00 -8.816477e+00 4.890181e+02
    endloop
  endfacet
  facet normal -1.162241e-01 -9.872814e-01 1.084775e-01
    outer loop
      vertex   -4.841141e+00 -8.785332e+00 4.888246e+02
      vertex   -5.277506e+00 -8.757308e+00 4.886122e+02
      vertex   -7.667621e+00 -8.657202e+00 4.869624e+02
    endloop
  endfacet
  facet normal -1.162241e-01 -9.872814e-01 1.084775e-01
    outer loop
      vertex   -7.667621e+00 -8.657202e+00 4.869624e+02
      vertex   -5.277506e+00 -8.757308e+00 4.886122e+02
      vertex   -5.704301e+00 -8.732457e+00 4.883811e+02
    endloop
  endfacet
  facet normal -1.162241e-01 -9.872814e-01 1.084775e-01
    outer loop
      vertex   -6.120731e+00 -8.710825e+00 4.881318e+02
      vertex   -7.667621e+00 -8.657202e+00 4.869624e+02
      vertex   -5.704301e+00 -8.732457e+00 4.883811e+02
    endloop
  endfacet
  facet normal -1.162241e-01 -9.872814e-01 1.084775e-01
    outer loop
      vertex   -6.120731e+00 -8.710825e+00 4.881318e+02
      vertex   -6.526021e+00 -8.692452e+00 4.878647e+02
      vertex   -7.667621e+00 -8.657202e+00 4.869624e+02
    endloop
  endfacet
  facet normal -1.162241e-01 -9.872814e-01 1.084775e-01
    outer loop
      vertex   -7.667621e+00 -8.657202e+00 4.869624e+02
      vertex   -6.526021e+00 -8.692452e+00 4.878647e+02
      vertex   -6.919417e+00 -8.677373e+00 4.875805e+02
    endloop
  endfacet
  facet normal -1.162241e-01 -9.872814e-01 1.084775e-01
    outer loop
      vertex   -7.300187e+00 -8.665616e+00 4.872795e+02
      vertex   -7.667621e+00 -8.657202e+00 4.869624e+02
      vertex   -6.919417e+00 -8.677373e+00 4.875805e+02
    endloop
  endfacet
  facet normal -1.162241e-01 -9.872814e-01 1.084775e-01
    outer loop
      vertex   -8.021037e+00 -8.652148e+00 4.866298e+02
      vertex   -2.544722e+00 -8.971019e+00 4.895951e+02
      vertex   -7.667621e+00 -8.657202e+00 4.869624e+02
    endloop
  endfacet
endsolid
